<svg width="340" height="19" viewBox="0 0 340 19" fill="none" xmlns="http://www.w3.org/2000/svg">
<path d="M1.88636 15H0.409091L4.68182 3.36364H6.13636L10.4091 15H8.93182L5.45455 5.20455H5.36364L1.88636 15ZM2.43182 10.4545H8.38636V11.7045H2.43182V10.4545ZM12.2216 15V3.36364H13.5625V7.65909H13.6761C13.7746 7.50758 13.911 7.31439 14.0852 7.07955C14.2633 6.84091 14.517 6.62879 14.8466 6.44318C15.1799 6.25379 15.6307 6.15909 16.1989 6.15909C16.9337 6.15909 17.5814 6.3428 18.142 6.71023C18.7027 7.07765 19.1402 7.59848 19.4545 8.27273C19.7689 8.94697 19.9261 9.74242 19.9261 10.6591C19.9261 11.5833 19.7689 12.3845 19.4545 13.0625C19.1402 13.7367 18.7045 14.2595 18.1477 14.6307C17.5909 14.9981 16.9489 15.1818 16.2216 15.1818C15.661 15.1818 15.2121 15.089 14.875 14.9034C14.5379 14.714 14.2784 14.5 14.0966 14.2614C13.9148 14.0189 13.7746 13.8182 13.6761 13.6591H13.517V15H12.2216ZM13.5398 10.6364C13.5398 11.2955 13.6364 11.8769 13.8295 12.3807C14.0227 12.8807 14.3049 13.2727 14.6761 13.5568C15.0473 13.8371 15.5019 13.9773 16.0398 13.9773C16.6004 13.9773 17.0682 13.8295 17.4432 13.5341C17.822 13.2348 18.1061 12.8333 18.2955 12.3295C18.4886 11.822 18.5852 11.2576 18.5852 10.6364C18.5852 10.0227 18.4905 9.4697 18.3011 8.97727C18.1155 8.48106 17.8333 8.08902 17.4545 7.80114C17.0795 7.50947 16.608 7.36364 16.0398 7.36364C15.4943 7.36364 15.036 7.50189 14.6648 7.77841C14.2936 8.05114 14.0133 8.43371 13.8239 8.92614C13.6345 9.41477 13.5398 9.98485 13.5398 10.6364ZM25.5227 15.1818C24.7348 15.1818 24.0436 14.9943 23.4489 14.6193C22.858 14.2443 22.3958 13.7197 22.0625 13.0455C21.733 12.3712 21.5682 11.5833 21.5682 10.6818C21.5682 9.77273 21.733 8.97917 22.0625 8.30114C22.3958 7.62311 22.858 7.09659 23.4489 6.72159C24.0436 6.34659 24.7348 6.15909 25.5227 6.15909C26.3106 6.15909 27 6.34659 27.5909 6.72159C28.1856 7.09659 28.6477 7.62311 28.9773 8.30114C29.3106 8.97917 29.4773 9.77273 29.4773 10.6818C29.4773 11.5833 29.3106 12.3712 28.9773 13.0455C28.6477 13.7197 28.1856 14.2443 27.5909 14.6193C27 14.9943 26.3106 15.1818 25.5227 15.1818ZM25.5227 13.9773C26.1212 13.9773 26.6136 13.8239 27 13.517C27.3864 13.2102 27.6723 12.8068 27.858 12.3068C28.0436 11.8068 28.1364 11.2652 28.1364 10.6818C28.1364 10.0985 28.0436 9.55492 27.858 9.05114C27.6723 8.54735 27.3864 8.14015 27 7.82955C26.6136 7.51894 26.1212 7.36364 25.5227 7.36364C24.9242 7.36364 24.4318 7.51894 24.0455 7.82955C23.6591 8.14015 23.3731 8.54735 23.1875 9.05114C23.0019 9.55492 22.9091 10.0985 22.9091 10.6818C22.9091 11.2652 23.0019 11.8068 23.1875 12.3068C23.3731 12.8068 23.6591 13.2102 24.0455 13.517C24.4318 13.8239 24.9242 13.9773 25.5227 13.9773ZM37.0241 11.4318V6.27273H38.3651V15H37.0241V13.5227H36.9332C36.7287 13.9659 36.4105 14.3428 35.9787 14.6534C35.5469 14.9602 35.0014 15.1136 34.3423 15.1136C33.7969 15.1136 33.312 14.9943 32.8878 14.7557C32.4635 14.5133 32.1302 14.1496 31.8878 13.6648C31.6454 13.1761 31.5241 12.5606 31.5241 11.8182V6.27273H32.8651V11.7273C32.8651 12.3636 33.0431 12.8712 33.3991 13.25C33.759 13.6288 34.2173 13.8182 34.7741 13.8182C35.1075 13.8182 35.4465 13.733 35.7912 13.5625C36.1397 13.392 36.4313 13.1307 36.6662 12.7784C36.9048 12.4261 37.0241 11.9773 37.0241 11.4318ZM44.6165 6.27273V7.40909H40.0938V6.27273H44.6165ZM41.4119 4.18182H42.7528V12.5C42.7528 12.8788 42.8078 13.1629 42.9176 13.3523C43.0313 13.5379 43.1752 13.6629 43.3494 13.7273C43.5275 13.7879 43.715 13.8182 43.9119 13.8182C44.0597 13.8182 44.1809 13.8106 44.2756 13.7955C44.3703 13.7765 44.446 13.7614 44.5028 13.75L44.7756 14.9545C44.6847 14.9886 44.5578 15.0227 44.3949 15.0568C44.232 15.0947 44.0256 15.1136 43.7756 15.1136C43.3968 15.1136 43.0256 15.0322 42.6619 14.8693C42.3021 14.7064 42.0028 14.4583 41.7642 14.125C41.5294 13.7917 41.4119 13.3712 41.4119 12.8636V4.18182Z" fill="#111827"/>
<path d="M100.773 7H99.3636C99.2803 6.5947 99.1345 6.23864 98.9261 5.93182C98.7216 5.625 98.4716 5.36742 98.1761 5.15909C97.8845 4.94697 97.5606 4.78788 97.2045 4.68182C96.8485 4.57576 96.4773 4.52273 96.0909 4.52273C95.3864 4.52273 94.7481 4.70076 94.1761 5.05682C93.608 5.41288 93.1553 5.9375 92.8182 6.63068C92.4848 7.32386 92.3182 8.17424 92.3182 9.18182C92.3182 10.1894 92.4848 11.0398 92.8182 11.733C93.1553 12.4261 93.608 12.9508 94.1761 13.3068C94.7481 13.6629 95.3864 13.8409 96.0909 13.8409C96.4773 13.8409 96.8485 13.7879 97.2045 13.6818C97.5606 13.5758 97.8845 13.4186 98.1761 13.2102C98.4716 12.9981 98.7216 12.7386 98.9261 12.4318C99.1345 12.1212 99.2803 11.7652 99.3636 11.3636H100.773C100.667 11.9583 100.473 12.4905 100.193 12.9602C99.9129 13.4299 99.5644 13.8295 99.1477 14.1591C98.7311 14.4848 98.2633 14.733 97.7443 14.9034C97.2292 15.0739 96.678 15.1591 96.0909 15.1591C95.0985 15.1591 94.2159 14.9167 93.4432 14.4318C92.6705 13.947 92.0625 13.2576 91.6193 12.3636C91.1761 11.4697 90.9545 10.4091 90.9545 9.18182C90.9545 7.95455 91.1761 6.89394 91.6193 6C92.0625 5.10606 92.6705 4.41667 93.4432 3.93182C94.2159 3.44697 95.0985 3.20455 96.0909 3.20455C96.678 3.20455 97.2292 3.28977 97.7443 3.46023C98.2633 3.63068 98.7311 3.88068 99.1477 4.21023C99.5644 4.53598 99.9129 4.93371 100.193 5.40341C100.473 5.86932 100.667 6.40151 100.773 7ZM105.436 15.2045C104.883 15.2045 104.381 15.1004 103.93 14.892C103.48 14.6799 103.122 14.375 102.857 13.9773C102.591 13.5758 102.459 13.0909 102.459 12.5227C102.459 12.0227 102.557 11.6174 102.754 11.3068C102.951 10.9924 103.214 10.7462 103.544 10.5682C103.874 10.3902 104.237 10.2576 104.635 10.1705C105.036 10.0795 105.44 10.0076 105.845 9.95455C106.375 9.88636 106.805 9.83523 107.135 9.80114C107.468 9.76326 107.711 9.70076 107.862 9.61364C108.018 9.52652 108.095 9.375 108.095 9.15909V9.11364C108.095 8.55303 107.942 8.11742 107.635 7.80682C107.332 7.49621 106.872 7.34091 106.254 7.34091C105.614 7.34091 105.112 7.48106 104.749 7.76136C104.385 8.04167 104.129 8.34091 103.982 8.65909L102.709 8.20455C102.936 7.67424 103.239 7.26136 103.618 6.96591C104 6.66667 104.417 6.45833 104.868 6.34091C105.322 6.2197 105.769 6.15909 106.209 6.15909C106.489 6.15909 106.811 6.19318 107.175 6.26136C107.542 6.32576 107.896 6.46023 108.237 6.66477C108.582 6.86932 108.868 7.17803 109.095 7.59091C109.322 8.00379 109.436 8.55682 109.436 9.25V15H108.095V13.8182H108.027C107.936 14.0076 107.785 14.2102 107.572 14.4261C107.36 14.642 107.078 14.8258 106.726 14.9773C106.374 15.1288 105.944 15.2045 105.436 15.2045ZM105.641 14C106.171 14 106.618 13.8958 106.982 13.6875C107.349 13.4792 107.625 13.2102 107.811 12.8807C108 12.5511 108.095 12.2045 108.095 11.8409V10.6136C108.038 10.6818 107.913 10.7443 107.72 10.8011C107.531 10.8542 107.311 10.9015 107.061 10.9432C106.815 10.9811 106.574 11.0152 106.339 11.0455C106.108 11.072 105.921 11.0947 105.777 11.1136C105.429 11.1591 105.103 11.233 104.8 11.3352C104.5 11.4337 104.258 11.5833 104.072 11.7841C103.891 11.9811 103.8 12.25 103.8 12.5909C103.8 13.0568 103.972 13.4091 104.317 13.6477C104.665 13.8826 105.107 14 105.641 14ZM113.224 3.36364V15H111.884V3.36364H113.224ZM119.339 15.1818C118.499 15.1818 117.773 14.9962 117.163 14.625C116.557 14.25 116.089 13.7273 115.76 13.0568C115.434 12.3826 115.271 11.5985 115.271 10.7045C115.271 9.81061 115.434 9.02273 115.76 8.34091C116.089 7.6553 116.548 7.12121 117.135 6.73864C117.726 6.35227 118.415 6.15909 119.203 6.15909C119.658 6.15909 120.107 6.23485 120.55 6.38636C120.993 6.53788 121.396 6.78409 121.76 7.125C122.124 7.46212 122.413 7.90909 122.629 8.46591C122.845 9.02273 122.953 9.70833 122.953 10.5227V11.0909H116.226V9.93182H121.589C121.589 9.43939 121.491 9 121.294 8.61364C121.101 8.22727 120.824 7.92235 120.464 7.69886C120.108 7.47538 119.688 7.36364 119.203 7.36364C118.669 7.36364 118.207 7.49621 117.817 7.76136C117.43 8.02273 117.133 8.36364 116.925 8.78409C116.716 9.20455 116.612 9.6553 116.612 10.1364V10.9091C116.612 11.5682 116.726 12.1269 116.953 12.5852C117.184 13.0398 117.504 13.3864 117.913 13.625C118.322 13.8598 118.798 13.9773 119.339 13.9773C119.692 13.9773 120.01 13.928 120.294 13.8295C120.582 13.7273 120.83 13.5758 121.038 13.375C121.247 13.1705 121.408 12.9167 121.521 12.6136L122.817 12.9773C122.68 13.4167 122.451 13.803 122.129 14.1364C121.807 14.4659 121.41 14.7235 120.936 14.9091C120.463 15.0909 119.93 15.1818 119.339 15.1818ZM126.334 9.75V15H124.993V6.27273H126.288V7.63636H126.402C126.607 7.19318 126.917 6.83712 127.334 6.56818C127.75 6.29545 128.288 6.15909 128.947 6.15909C129.538 6.15909 130.055 6.2803 130.499 6.52273C130.942 6.76136 131.286 7.125 131.533 7.61364C131.779 8.09848 131.902 8.71212 131.902 9.45455V15H130.561V9.54545C130.561 8.85985 130.383 8.32576 130.027 7.94318C129.671 7.55682 129.182 7.36364 128.561 7.36364C128.133 7.36364 127.75 7.45644 127.413 7.64205C127.08 7.82765 126.817 8.09848 126.624 8.45455C126.43 8.81061 126.334 9.24242 126.334 9.75ZM137.648 15.1818C136.92 15.1818 136.278 14.9981 135.722 14.6307C135.165 14.2595 134.729 13.7367 134.415 13.0625C134.1 12.3845 133.943 11.5833 133.943 10.6591C133.943 9.74242 134.1 8.94697 134.415 8.27273C134.729 7.59848 135.167 7.07765 135.727 6.71023C136.288 6.3428 136.936 6.15909 137.67 6.15909C138.239 6.15909 138.688 6.25379 139.017 6.44318C139.35 6.62879 139.604 6.84091 139.778 7.07955C139.956 7.31439 140.095 7.50758 140.193 7.65909H140.307V3.36364H141.648V15H140.352V13.6591H140.193C140.095 13.8182 139.955 14.0189 139.773 14.2614C139.591 14.5 139.331 14.714 138.994 14.9034C138.657 15.089 138.208 15.1818 137.648 15.1818ZM137.83 13.9773C138.367 13.9773 138.822 13.8371 139.193 13.5568C139.564 13.2727 139.847 12.8807 140.04 12.3807C140.233 11.8769 140.33 11.2955 140.33 10.6364C140.33 9.98485 140.235 9.41477 140.045 8.92614C139.856 8.43371 139.576 8.05114 139.205 7.77841C138.833 7.50189 138.375 7.36364 137.83 7.36364C137.261 7.36364 136.788 7.50947 136.409 7.80114C136.034 8.08902 135.752 8.48106 135.562 8.97727C135.377 9.4697 135.284 10.0227 135.284 10.6364C135.284 11.2576 135.379 11.822 135.568 12.3295C135.761 12.8333 136.045 13.2348 136.42 13.5341C136.799 13.8295 137.269 13.9773 137.83 13.9773ZM146.858 15.2045C146.305 15.2045 145.803 15.1004 145.352 14.892C144.902 14.6799 144.544 14.375 144.278 13.9773C144.013 13.5758 143.881 13.0909 143.881 12.5227C143.881 12.0227 143.979 11.6174 144.176 11.3068C144.373 10.9924 144.636 10.7462 144.966 10.5682C145.295 10.3902 145.659 10.2576 146.057 10.1705C146.458 10.0795 146.862 10.0076 147.267 9.95455C147.797 9.88636 148.227 9.83523 148.557 9.80114C148.89 9.76326 149.133 9.70076 149.284 9.61364C149.439 9.52652 149.517 9.375 149.517 9.15909V9.11364C149.517 8.55303 149.364 8.11742 149.057 7.80682C148.754 7.49621 148.294 7.34091 147.676 7.34091C147.036 7.34091 146.534 7.48106 146.17 7.76136C145.807 8.04167 145.551 8.34091 145.403 8.65909L144.131 8.20455C144.358 7.67424 144.661 7.26136 145.04 6.96591C145.422 6.66667 145.839 6.45833 146.29 6.34091C146.744 6.2197 147.191 6.15909 147.631 6.15909C147.911 6.15909 148.233 6.19318 148.597 6.26136C148.964 6.32576 149.318 6.46023 149.659 6.66477C150.004 6.86932 150.29 7.17803 150.517 7.59091C150.744 8.00379 150.858 8.55682 150.858 9.25V15H149.517V13.8182H149.449C149.358 14.0076 149.206 14.2102 148.994 14.4261C148.782 14.642 148.5 14.8258 148.148 14.9773C147.795 15.1288 147.366 15.2045 146.858 15.2045ZM147.062 14C147.593 14 148.04 13.8958 148.403 13.6875C148.771 13.4792 149.047 13.2102 149.233 12.8807C149.422 12.5511 149.517 12.2045 149.517 11.8409V10.6136C149.46 10.6818 149.335 10.7443 149.142 10.8011C148.953 10.8542 148.733 10.9015 148.483 10.9432C148.237 10.9811 147.996 11.0152 147.761 11.0455C147.53 11.072 147.343 11.0947 147.199 11.1136C146.85 11.1591 146.525 11.233 146.222 11.3352C145.922 11.4337 145.68 11.5833 145.494 11.7841C145.313 11.9811 145.222 12.25 145.222 12.5909C145.222 13.0568 145.394 13.4091 145.739 13.6477C146.087 13.8826 146.528 14 147.062 14ZM153.305 15V6.27273H154.601V7.59091H154.692C154.851 7.15909 155.139 6.80871 155.555 6.53977C155.972 6.27083 156.442 6.13636 156.964 6.13636C157.063 6.13636 157.186 6.13826 157.334 6.14205C157.482 6.14583 157.593 6.15152 157.669 6.15909V7.52273C157.624 7.51136 157.519 7.49432 157.357 7.47159C157.197 7.44508 157.029 7.43182 156.851 7.43182C156.427 7.43182 156.048 7.52083 155.714 7.69886C155.385 7.87311 155.124 8.11553 154.93 8.42614C154.741 8.73295 154.646 9.08333 154.646 9.47727V15H153.305Z" fill="#111827"/>
<path d="M203.523 15L200.341 3.36364H201.773L204.205 12.8409H204.318L206.795 3.36364H208.386L210.864 12.8409H210.977L213.409 3.36364H214.841L211.659 15H210.205L207.636 5.72727H207.545L204.977 15H203.523ZM219.148 15.1818C218.36 15.1818 217.669 14.9943 217.074 14.6193C216.483 14.2443 216.021 13.7197 215.688 13.0455C215.358 12.3712 215.193 11.5833 215.193 10.6818C215.193 9.77273 215.358 8.97917 215.688 8.30114C216.021 7.62311 216.483 7.09659 217.074 6.72159C217.669 6.34659 218.36 6.15909 219.148 6.15909C219.936 6.15909 220.625 6.34659 221.216 6.72159C221.811 7.09659 222.273 7.62311 222.602 8.30114C222.936 8.97917 223.102 9.77273 223.102 10.6818C223.102 11.5833 222.936 12.3712 222.602 13.0455C222.273 13.7197 221.811 14.2443 221.216 14.6193C220.625 14.9943 219.936 15.1818 219.148 15.1818ZM219.148 13.9773C219.746 13.9773 220.239 13.8239 220.625 13.517C221.011 13.2102 221.297 12.8068 221.483 12.3068C221.669 11.8068 221.761 11.2652 221.761 10.6818C221.761 10.0985 221.669 9.55492 221.483 9.05114C221.297 8.54735 221.011 8.14015 220.625 7.82955C220.239 7.51894 219.746 7.36364 219.148 7.36364C218.549 7.36364 218.057 7.51894 217.67 7.82955C217.284 8.14015 216.998 8.54735 216.812 9.05114C216.627 9.55492 216.534 10.0985 216.534 10.6818C216.534 11.2652 216.627 11.8068 216.812 12.3068C216.998 12.8068 217.284 13.2102 217.67 13.517C218.057 13.8239 218.549 13.9773 219.148 13.9773ZM225.149 15V6.27273H226.445V7.59091H226.536C226.695 7.15909 226.982 6.80871 227.399 6.53977C227.816 6.27083 228.286 6.13636 228.808 6.13636C228.907 6.13636 229.03 6.13826 229.178 6.14205C229.325 6.14583 229.437 6.15152 229.513 6.15909V7.52273C229.467 7.51136 229.363 7.49432 229.2 7.47159C229.041 7.44508 228.873 7.43182 228.695 7.43182C228.27 7.43182 227.892 7.52083 227.558 7.69886C227.229 7.87311 226.967 8.11553 226.774 8.42614C226.585 8.73295 226.49 9.08333 226.49 9.47727V15H225.149ZM232.352 11.8182L232.33 10.1591H232.602L236.42 6.27273H238.08L234.011 10.3864H233.898L232.352 11.8182ZM231.102 15V3.36364H232.443V15H231.102ZM236.648 15L233.239 10.6818L234.193 9.75L238.352 15H236.648ZM242.991 15.1818C242.204 15.1818 241.512 14.9943 240.918 14.6193C240.327 14.2443 239.865 13.7197 239.531 13.0455C239.202 12.3712 239.037 11.5833 239.037 10.6818C239.037 9.77273 239.202 8.97917 239.531 8.30114C239.865 7.62311 240.327 7.09659 240.918 6.72159C241.512 6.34659 242.204 6.15909 242.991 6.15909C243.779 6.15909 244.469 6.34659 245.06 6.72159C245.654 7.09659 246.116 7.62311 246.446 8.30114C246.779 8.97917 246.946 9.77273 246.946 10.6818C246.946 11.5833 246.779 12.3712 246.446 13.0455C246.116 13.7197 245.654 14.2443 245.06 14.6193C244.469 14.9943 243.779 15.1818 242.991 15.1818ZM242.991 13.9773C243.59 13.9773 244.082 13.8239 244.469 13.517C244.855 13.2102 245.141 12.8068 245.327 12.3068C245.512 11.8068 245.605 11.2652 245.605 10.6818C245.605 10.0985 245.512 9.55492 245.327 9.05114C245.141 8.54735 244.855 8.14015 244.469 7.82955C244.082 7.51894 243.59 7.36364 242.991 7.36364C242.393 7.36364 241.901 7.51894 241.514 7.82955C241.128 8.14015 240.842 8.54735 240.656 9.05114C240.471 9.55492 240.378 10.0985 240.378 10.6818C240.378 11.2652 240.471 11.8068 240.656 12.3068C240.842 12.8068 241.128 13.2102 241.514 13.517C241.901 13.8239 242.393 13.9773 242.991 13.9773ZM254.493 11.4318V6.27273H255.834V15H254.493V13.5227H254.402C254.197 13.9659 253.879 14.3428 253.447 14.6534C253.016 14.9602 252.47 15.1136 251.811 15.1136C251.266 15.1136 250.781 14.9943 250.357 14.7557C249.932 14.5133 249.599 14.1496 249.357 13.6648C249.114 13.1761 248.993 12.5606 248.993 11.8182V6.27273H250.334V11.7273C250.334 12.3636 250.512 12.8712 250.868 13.25C251.228 13.6288 251.686 13.8182 252.243 13.8182C252.576 13.8182 252.915 13.733 253.26 13.5625C253.608 13.392 253.9 13.1307 254.135 12.7784C254.374 12.4261 254.493 11.9773 254.493 11.4318ZM262.085 6.27273V7.40909H257.562V6.27273H262.085ZM258.881 4.18182H260.222V12.5C260.222 12.8788 260.277 13.1629 260.386 13.3523C260.5 13.5379 260.644 13.6629 260.818 13.7273C260.996 13.7879 261.184 13.8182 261.381 13.8182C261.528 13.8182 261.65 13.8106 261.744 13.7955C261.839 13.7765 261.915 13.7614 261.972 13.75L262.244 14.9545C262.153 14.9886 262.027 15.0227 261.864 15.0568C261.701 15.0947 261.494 15.1136 261.244 15.1136C260.866 15.1136 260.494 15.0322 260.131 14.8693C259.771 14.7064 259.472 14.4583 259.233 14.125C258.998 13.7917 258.881 13.3712 258.881 12.8636V4.18182Z" fill="#111827"/>
<path d="M307.773 6.27273C307.705 5.69697 307.428 5.25 306.943 4.93182C306.458 4.61364 305.864 4.45455 305.159 4.45455C304.644 4.45455 304.193 4.53788 303.807 4.70455C303.424 4.87121 303.125 5.10038 302.909 5.39205C302.697 5.68371 302.591 6.01515 302.591 6.38636C302.591 6.69697 302.665 6.96401 302.812 7.1875C302.964 7.4072 303.157 7.59091 303.392 7.73864C303.627 7.88258 303.873 8.00189 304.131 8.09659C304.388 8.1875 304.625 8.26136 304.841 8.31818L306.023 8.63636C306.326 8.71591 306.663 8.82576 307.034 8.96591C307.409 9.10606 307.767 9.29735 308.108 9.53977C308.453 9.77841 308.737 10.0852 308.96 10.4602C309.184 10.8352 309.295 11.2955 309.295 11.8409C309.295 12.4697 309.131 13.0379 308.801 13.5455C308.475 14.053 307.998 14.4564 307.369 14.7557C306.744 15.0549 305.985 15.2045 305.091 15.2045C304.258 15.2045 303.536 15.0701 302.926 14.8011C302.32 14.5322 301.843 14.1572 301.494 13.6761C301.15 13.1951 300.955 12.6364 300.909 12H302.364C302.402 12.4394 302.549 12.803 302.807 13.0909C303.068 13.375 303.398 13.5871 303.795 13.7273C304.197 13.8636 304.629 13.9318 305.091 13.9318C305.629 13.9318 306.112 13.8447 306.54 13.6705C306.968 13.4924 307.307 13.2462 307.557 12.9318C307.807 12.6136 307.932 12.2424 307.932 11.8182C307.932 11.4318 307.824 11.1174 307.608 10.875C307.392 10.6326 307.108 10.4356 306.756 10.2841C306.403 10.1326 306.023 10 305.614 9.88636L304.182 9.47727C303.273 9.21591 302.553 8.8428 302.023 8.35795C301.492 7.87311 301.227 7.23864 301.227 6.45455C301.227 5.80303 301.403 5.23485 301.756 4.75C302.112 4.26136 302.589 3.88258 303.188 3.61364C303.79 3.34091 304.462 3.20455 305.205 3.20455C305.955 3.20455 306.621 3.33901 307.205 3.60795C307.788 3.87311 308.25 4.23674 308.591 4.69886C308.936 5.16098 309.117 5.68561 309.136 6.27273H307.773ZM315.226 6.27273V7.40909H310.703V6.27273H315.226ZM312.021 4.18182H313.362V12.5C313.362 12.8788 313.417 13.1629 313.527 13.3523C313.641 13.5379 313.785 13.6629 313.959 13.7273C314.137 13.7879 314.324 13.8182 314.521 13.8182C314.669 13.8182 314.79 13.8106 314.885 13.7955C314.98 13.7765 315.055 13.7614 315.112 13.75L315.385 14.9545C315.294 14.9886 315.167 15.0227 315.004 15.0568C314.841 15.0947 314.635 15.1136 314.385 15.1136C314.006 15.1136 313.635 15.0322 313.271 14.8693C312.911 14.7064 312.612 14.4583 312.374 14.125C312.139 13.7917 312.021 13.3712 312.021 12.8636V4.18182ZM319.811 15.2045C319.258 15.2045 318.756 15.1004 318.305 14.892C317.855 14.6799 317.497 14.375 317.232 13.9773C316.966 13.5758 316.834 13.0909 316.834 12.5227C316.834 12.0227 316.932 11.6174 317.129 11.3068C317.326 10.9924 317.589 10.7462 317.919 10.5682C318.249 10.3902 318.612 10.2576 319.01 10.1705C319.411 10.0795 319.815 10.0076 320.22 9.95455C320.75 9.88636 321.18 9.83523 321.51 9.80114C321.843 9.76326 322.086 9.70076 322.237 9.61364C322.393 9.52652 322.47 9.375 322.47 9.15909V9.11364C322.47 8.55303 322.317 8.11742 322.01 7.80682C321.707 7.49621 321.247 7.34091 320.629 7.34091C319.989 7.34091 319.487 7.48106 319.124 7.76136C318.76 8.04167 318.504 8.34091 318.357 8.65909L317.084 8.20455C317.311 7.67424 317.614 7.26136 317.993 6.96591C318.375 6.66667 318.792 6.45833 319.243 6.34091C319.697 6.2197 320.144 6.15909 320.584 6.15909C320.864 6.15909 321.186 6.19318 321.55 6.26136C321.917 6.32576 322.271 6.46023 322.612 6.66477C322.957 6.86932 323.243 7.17803 323.47 7.59091C323.697 8.00379 323.811 8.55682 323.811 9.25V15H322.47V13.8182H322.402C322.311 14.0076 322.16 14.2102 321.947 14.4261C321.735 14.642 321.453 14.8258 321.101 14.9773C320.749 15.1288 320.319 15.2045 319.811 15.2045ZM320.016 14C320.546 14 320.993 13.8958 321.357 13.6875C321.724 13.4792 322 13.2102 322.186 12.8807C322.375 12.5511 322.47 12.2045 322.47 11.8409V10.6136C322.413 10.6818 322.288 10.7443 322.095 10.8011C321.906 10.8542 321.686 10.9015 321.436 10.9432C321.19 10.9811 320.949 11.0152 320.714 11.0455C320.483 11.072 320.296 11.0947 320.152 11.1136C319.804 11.1591 319.478 11.233 319.175 11.3352C318.875 11.4337 318.633 11.5833 318.447 11.7841C318.266 11.9811 318.175 12.25 318.175 12.5909C318.175 13.0568 318.347 13.4091 318.692 13.6477C319.04 13.8826 319.482 14 320.016 14ZM330.054 6.27273V7.40909H325.531V6.27273H330.054ZM326.849 4.18182H328.19V12.5C328.19 12.8788 328.245 13.1629 328.355 13.3523C328.469 13.5379 328.613 13.6629 328.787 13.7273C328.965 13.7879 329.152 13.8182 329.349 13.8182C329.497 13.8182 329.618 13.8106 329.713 13.7955C329.808 13.7765 329.884 13.7614 329.94 13.75L330.213 14.9545C330.122 14.9886 329.995 15.0227 329.832 15.0568C329.67 15.0947 329.463 15.1136 329.213 15.1136C328.834 15.1136 328.463 15.0322 328.099 14.8693C327.74 14.7064 327.44 14.4583 327.202 14.125C326.967 13.7917 326.849 13.3712 326.849 12.8636V4.18182ZM338.097 8.22727L336.892 8.56818C336.816 8.36742 336.705 8.17235 336.557 7.98295C336.413 7.78977 336.216 7.63068 335.966 7.50568C335.716 7.38068 335.396 7.31818 335.006 7.31818C334.472 7.31818 334.027 7.44129 333.67 7.6875C333.318 7.92992 333.142 8.23864 333.142 8.61364C333.142 8.94697 333.263 9.21023 333.506 9.40341C333.748 9.59659 334.127 9.75758 334.642 9.88636L335.938 10.2045C336.718 10.3939 337.299 10.6837 337.682 11.0739C338.064 11.4602 338.256 11.9583 338.256 12.5682C338.256 13.0682 338.112 13.5152 337.824 13.9091C337.54 14.303 337.142 14.6136 336.631 14.8409C336.119 15.0682 335.525 15.1818 334.847 15.1818C333.956 15.1818 333.22 14.9886 332.636 14.6023C332.053 14.2159 331.684 13.6515 331.528 12.9091L332.801 12.5909C332.922 13.0606 333.152 13.4129 333.489 13.6477C333.83 13.8826 334.275 14 334.824 14C335.449 14 335.945 13.8674 336.312 13.6023C336.684 13.3333 336.869 13.0114 336.869 12.6364C336.869 12.3333 336.763 12.0795 336.551 11.875C336.339 11.6667 336.013 11.5114 335.574 11.4091L334.119 11.0682C333.32 10.8788 332.733 10.5852 332.358 10.1875C331.987 9.78598 331.801 9.28409 331.801 8.68182C331.801 8.18939 331.939 7.75379 332.216 7.375C332.496 6.99621 332.877 6.69886 333.358 6.48295C333.843 6.26705 334.392 6.15909 335.006 6.15909C335.869 6.15909 336.547 6.34848 337.04 6.72727C337.536 7.10606 337.888 7.60606 338.097 8.22727Z" fill="#111827"/>
</svg>
