<svg width="219" height="120" viewBox="0 0 219 120" fill="none" xmlns="http://www.w3.org/2000/svg">
<path d="M186.15 8H32.85C20.7549 8 10.95 15.1634 10.95 24V96C10.95 104.837 20.7549 112 32.85 112H186.15C198.245 112 208.05 104.837 208.05 96V24C208.05 15.1634 198.245 8 186.15 8Z" fill="url(#paint0_linear_219_526)"/>
<path opacity="0.9" d="M73.9126 38C73.9126 41.5601 75.3576 45.0402 78.0648 48.0003C80.772 50.9603 84.6198 53.2675 89.1217 54.6298C93.6237 55.9922 98.5774 56.3487 103.357 55.6541C108.136 54.9596 112.526 53.2453 115.971 50.7279C119.417 48.2106 121.764 45.0033 122.714 41.5116C123.665 38.02 123.177 34.4008 121.312 31.1117C119.447 27.8226 116.29 25.0114 112.238 23.0335C108.186 21.0557 103.423 20 98.5501 20C99.8284 22.5131 100.092 25.2415 99.31 27.8609C98.5278 30.4804 96.7326 32.8806 94.1378 34.7764C91.5429 36.6722 88.2576 37.9837 84.6723 38.5552C81.0869 39.1266 77.3524 38.9339 73.9126 38Z" fill="#7D6BFF"/>
<path d="M131.4 33C133.668 33 135.506 31.6569 135.506 30C135.506 28.3431 133.668 27 131.4 27C129.132 27 127.294 28.3431 127.294 30C127.294 31.6569 129.132 33 131.4 33Z" fill="#FFD166"/>
<path d="M147.825 42.5C149.715 42.5 151.247 41.3807 151.247 40C151.247 38.6193 149.715 37.5 147.825 37.5C145.935 37.5 144.403 38.6193 144.403 40C144.403 41.3807 145.935 42.5 147.825 42.5Z" fill="#FFD166"/>
<path d="M123.187 48C124.699 48 125.925 47.1046 125.925 46C125.925 44.8954 124.699 44 123.187 44C121.676 44 120.45 44.8954 120.45 46C120.45 47.1046 121.676 48 123.187 48Z" fill="#FFD166"/>
<path d="M156.037 70H62.9624C55.403 70 49.2749 74.4772 49.2749 80C49.2749 85.5228 55.403 90 62.9624 90H156.037C163.597 90 169.725 85.5228 169.725 80C169.725 74.4772 163.597 70 156.037 70Z" fill="white" stroke="#E5E7EB"/>
<path d="M79.3875 74H62.9625C58.4269 74 54.75 76.6863 54.75 80C54.75 83.3137 58.4269 86 62.9625 86H79.3875C83.9231 86 87.6 83.3137 87.6 80C87.6 76.6863 83.9231 74 79.3875 74Z" fill="#EEF2FF"/>
<path d="M112.238 74H95.8126C91.277 74 87.6001 76.6863 87.6001 80C87.6001 83.3137 91.277 86 95.8126 86H112.238C116.773 86 120.45 83.3137 120.45 80C120.45 76.6863 116.773 74 112.238 74Z" fill="#EEF2FF"/>
<path d="M158.775 56H169.725L158.775 64H169.725" fill="black"/>
<path d="M158.775 56H169.725L158.775 64H169.725" stroke="#6B7280" stroke-linecap="round"/>
<defs>
<linearGradient id="paint0_linear_219_526" x1="10.95" y1="8" x2="96.7995" y2="170.701" gradientUnits="userSpaceOnUse">
<stop stop-color="#EEF2FF"/>
<stop offset="1" stop-color="#FAFAFF"/>
</linearGradient>
</defs>
</svg>
