<svg width="199" height="120" viewBox="0 0 199 120" fill="none" xmlns="http://www.w3.org/2000/svg">
<path d="M169.15 8H29.85C18.8595 8 9.94995 15.1634 9.94995 24V96C9.94995 104.837 18.8595 112 29.85 112H169.15C180.14 112 189.05 104.837 189.05 96V24C189.05 15.1634 180.14 8 169.15 8Z" fill="url(#paint0_linear_219_552)"/>
<path d="M129.35 44H59.7C54.2048 44 49.75 47.5817 49.75 52V68C49.75 72.4183 54.2048 76 59.7 76H129.35C134.845 76 139.3 72.4183 139.3 68V52C139.3 47.5817 134.845 44 129.35 44Z" fill="white" stroke="#E5E7EB"/>
<path d="M146.762 55C146.762 53.3431 145.092 52 143.031 52C140.97 52 139.3 53.3431 139.3 55V65C139.3 66.6569 140.97 68 143.031 68C145.092 68 146.762 66.6569 146.762 65V55Z" fill="#E5E7EB"/>
<path d="M74.6249 50H62.1874C59.4398 50 57.2124 51.7909 57.2124 54V66C57.2124 68.2091 59.4398 70 62.1874 70H74.6249C77.3725 70 79.5999 68.2091 79.5999 66V54C79.5999 51.7909 77.3725 50 74.6249 50Z" fill="#5AD18B"/>
<path d="M99.4999 50H87.0624C84.3148 50 82.0874 51.7909 82.0874 54V66C82.0874 68.2091 84.3148 70 87.0624 70H99.4999C102.248 70 104.475 68.2091 104.475 66V54C104.475 51.7909 102.248 50 99.4999 50Z" fill="#7DDEAA"/>
<path d="M124.375 50H111.937C109.19 50 106.962 51.7909 106.962 54V66C106.962 68.2091 109.19 70 111.937 70H124.375C127.123 70 129.35 68.2091 129.35 66V54C129.35 51.7909 127.123 50 124.375 50Z" fill="#B6F2CF"/>
<path opacity="0.9" d="M104.475 82L114.425 72H108.206L115.669 62H104.475L94.525 72H100.744L93.2812 82H104.475Z" fill="#7D6BFF"/>
<defs>
<linearGradient id="paint0_linear_219_552" x1="9.94995" y1="8" x2="100.275" y2="163.55" gradientUnits="userSpaceOnUse">
<stop stop-color="#EEF2FF"/>
<stop offset="1" stop-color="#FAFAFF"/>
</linearGradient>
</defs>
</svg>
