<svg width="200" height="120" viewBox="0 0 200 120" fill="none" xmlns="http://www.w3.org/2000/svg">
<path d="M170 8H30C18.9543 8 10 15.1634 10 24V96C10 104.837 18.9543 112 30 112H170C181.046 112 190 104.837 190 96V24C190 15.1634 181.046 8 170 8Z" fill="url(#paint0_linear_219_536)"/>
<path d="M140 28H60C51.7157 28 45 33.3726 45 40V80C45 86.6274 51.7157 92 60 92H140C148.284 92 155 86.6274 155 80V40C155 33.3726 148.284 28 140 28Z" fill="white" stroke="#E5E7EB"/>
<path d="M140 28H60C51.7157 28 45 32.0294 45 37C45 41.9706 51.7157 46 60 46H140C148.284 46 155 41.9706 155 37C155 32.0294 148.284 28 140 28Z" fill="#EEF2FF"/>
<path d="M67.5 39.5C69.9162 39.5 71.875 37.933 71.875 36C71.875 34.067 69.9162 32.5 67.5 32.5C65.0838 32.5 63.125 34.067 63.125 36C63.125 37.933 65.0838 39.5 67.5 39.5Z" fill="#7D6BFF"/>
<path d="M87.5 39.5C89.9162 39.5 91.875 37.933 91.875 36C91.875 34.067 89.9162 32.5 87.5 32.5C85.0838 32.5 83.125 34.067 83.125 36C83.125 37.933 85.0838 39.5 87.5 39.5Z" fill="#FF6EA9"/>
<path d="M67.5 56.5C69.2259 56.5 70.625 55.3807 70.625 54C70.625 52.6193 69.2259 51.5 67.5 51.5C65.7741 51.5 64.375 52.6193 64.375 54C64.375 55.3807 65.7741 56.5 67.5 56.5Z" fill="#D1D5DB"/>
<path d="M87.5 56.5C89.2259 56.5 90.625 55.3807 90.625 54C90.625 52.6193 89.2259 51.5 87.5 51.5C85.7741 51.5 84.375 52.6193 84.375 54C84.375 55.3807 85.7741 56.5 87.5 56.5Z" fill="#D1D5DB"/>
<path d="M107.5 56.5C109.226 56.5 110.625 55.3807 110.625 54C110.625 52.6193 109.226 51.5 107.5 51.5C105.774 51.5 104.375 52.6193 104.375 54C104.375 55.3807 105.774 56.5 107.5 56.5Z" fill="#D1D5DB"/>
<path d="M127.5 56.5C129.226 56.5 130.625 55.3807 130.625 54C130.625 52.6193 129.226 51.5 127.5 51.5C125.774 51.5 124.375 52.6193 124.375 54C124.375 55.3807 125.774 56.5 127.5 56.5Z" fill="#D1D5DB"/>
<path d="M67.5 72.5C69.2259 72.5 70.625 71.3807 70.625 70C70.625 68.6193 69.2259 67.5 67.5 67.5C65.7741 67.5 64.375 68.6193 64.375 70C64.375 71.3807 65.7741 72.5 67.5 72.5Z" fill="#D1D5DB"/>
<path d="M87.5 72.5C89.2259 72.5 90.625 71.3807 90.625 70C90.625 68.6193 89.2259 67.5 87.5 67.5C85.7741 67.5 84.375 68.6193 84.375 70C84.375 71.3807 85.7741 72.5 87.5 72.5Z" fill="#D1D5DB"/>
<path d="M107.5 72.5C109.226 72.5 110.625 71.3807 110.625 70C110.625 68.6193 109.226 67.5 107.5 67.5C105.774 67.5 104.375 68.6193 104.375 70C104.375 71.3807 105.774 72.5 107.5 72.5Z" fill="#D1D5DB"/>
<path d="M127.5 72.5C129.226 72.5 130.625 71.3807 130.625 70C130.625 68.6193 129.226 67.5 127.5 67.5C125.774 67.5 124.375 68.6193 124.375 70C124.375 71.3807 125.774 72.5 127.5 72.5Z" fill="#D1D5DB"/>
<path d="M62.5 70L70 76L85 62" fill="black"/>
<path d="M62.5 70L70 76L85 62" stroke="#5AD18B" stroke-width="3" stroke-linecap="round" stroke-linejoin="round"/>
<defs>
<linearGradient id="paint0_linear_219_536" x1="10" y1="8" x2="100.1" y2="163.942" gradientUnits="userSpaceOnUse">
<stop stop-color="#EEF2FF"/>
<stop offset="1" stop-color="#FAFAFF"/>
</linearGradient>
</defs>
</svg>
