<svg width="292" height="226" viewBox="0 0 292 226" fill="none" xmlns="http://www.w3.org/2000/svg">
<path d="M233.6 33.9H58.4C46.305 33.9 36.5 44.0184 36.5 56.5V169.5C36.5 181.982 46.305 192.1 58.4 192.1H233.6C245.695 192.1 255.5 181.982 255.5 169.5V56.5C255.5 44.0184 245.695 33.9 233.6 33.9Z" fill="white" stroke="#E5E7EB"/>
<path d="M82.1252 139.367H71.1752C68.1514 139.367 65.7002 141.896 65.7002 145.017V167.617C65.7002 170.737 68.1514 173.267 71.1752 173.267H82.1252C85.149 173.267 87.6002 170.737 87.6002 167.617V145.017C87.6002 141.896 85.149 139.367 82.1252 139.367Z" fill="#7D6BFF"/>
<path d="M118.625 116.767H107.675C104.651 116.767 102.2 119.296 102.2 122.417V167.617C102.2 170.737 104.651 173.267 107.675 173.267H118.625C121.649 173.267 124.1 170.737 124.1 167.617V122.417C124.1 119.296 121.649 116.767 118.625 116.767Z" fill="#5CC4FF"/>
<path d="M155.125 94.1666H144.175C141.151 94.1666 138.7 96.6962 138.7 99.8166V167.617C138.7 170.737 141.151 173.267 144.175 173.267H155.125C158.149 173.267 160.6 170.737 160.6 167.617V99.8166C160.6 96.6962 158.149 94.1666 155.125 94.1666Z" fill="#5AD18B"/>
<path d="M191.625 109.233H180.675C177.651 109.233 175.2 111.763 175.2 114.883V167.617C175.2 170.737 177.651 173.267 180.675 173.267H191.625C194.649 173.267 197.1 170.737 197.1 167.617V114.883C197.1 111.763 194.649 109.233 191.625 109.233Z" fill="#FF6EA9"/>
<path d="M58.3999 131.833C80.2999 113 102.2 94.1667 124.1 113C146 131.833 167.9 113 189.8 90.4" stroke="#6B7280" stroke-width="1.5" stroke-dasharray="3 4"/>
</svg>
