<svg width="201" height="38" viewBox="0 0 201 38" fill="none" xmlns="http://www.w3.org/2000/svg">
<path d="M63 1H19C9.05887 1 1 9.05887 1 19C1 28.9411 9.05887 37 19 37H63C72.9411 37 81 28.9411 81 19C81 9.05887 72.9411 1 63 1Z" stroke="#E5E7EB"/>
<path d="M23.1151 22L24.5639 13.2727H26.6733L25.5142 20.2869H29.1449L28.8551 22H23.1151ZM32.9982 22.1236C32.3079 22.1236 31.7383 21.9815 31.2894 21.6974C30.8434 21.4134 30.5295 21.017 30.3477 20.5085C30.1658 20 30.1303 19.4091 30.2411 18.7358C30.3519 18.0653 30.5806 17.4773 30.9272 16.9716C31.2738 16.4659 31.717 16.0724 32.2567 15.7912C32.7965 15.5099 33.4087 15.3693 34.0934 15.3693C34.7809 15.3693 35.3477 15.5114 35.7937 15.7955C36.2425 16.0795 36.5579 16.4759 36.7397 16.9844C36.9244 17.4929 36.9613 18.0852 36.8505 18.7614C36.7397 19.4318 36.5096 20.0199 36.1602 20.5256C35.8107 21.0284 35.3675 21.4205 34.8306 21.7017C34.2937 21.983 33.6829 22.1236 32.9982 22.1236ZM33.2326 20.5511C33.4883 20.5511 33.717 20.4744 33.9187 20.321C34.1232 20.1676 34.2951 19.9531 34.4343 19.6776C34.5735 19.402 34.6729 19.0824 34.7326 18.7188C34.7923 18.3608 34.7979 18.0469 34.7496 17.777C34.7042 17.5043 34.6076 17.2926 34.4599 17.142C34.3121 16.9886 34.1119 16.9119 33.859 16.9119C33.6033 16.9119 33.3732 16.9901 33.1687 17.1463C32.9641 17.2997 32.7923 17.5142 32.6531 17.7898C32.5167 18.0625 32.4187 18.3821 32.359 18.7486C32.2994 19.1065 32.2923 19.4205 32.3377 19.6903C32.3832 19.9602 32.4812 20.1719 32.6317 20.3253C32.7823 20.4759 32.9826 20.5511 33.2326 20.5511ZM40.0188 24.5909C39.3938 24.5909 38.8739 24.5043 38.4592 24.331C38.0444 24.1577 37.7347 23.9205 37.5302 23.6193C37.3256 23.3182 37.2276 22.9773 37.2362 22.5966L39.2305 22.4858C39.2475 22.6222 39.2972 22.7401 39.3796 22.8395C39.462 22.9389 39.5799 23.0142 39.7333 23.0653C39.8867 23.1193 40.0771 23.1463 40.3043 23.1463C40.6538 23.1463 40.9577 23.0611 41.2163 22.8906C41.4748 22.7202 41.6339 22.4261 41.6935 22.0085L41.8853 20.858H41.8129C41.6992 21.0597 41.5458 21.2401 41.3526 21.3991C41.1594 21.5582 40.9308 21.6832 40.6665 21.7741C40.4023 21.8651 40.1097 21.9105 39.7887 21.9105C39.3086 21.9105 38.8896 21.7997 38.5316 21.5781C38.1737 21.3537 37.9151 21.0071 37.756 20.5384C37.5969 20.0668 37.5785 19.4602 37.7006 18.7188C37.8285 17.9545 38.0558 17.3253 38.3825 16.831C38.7092 16.3338 39.0898 15.9659 39.5245 15.7273C39.962 15.4886 40.4094 15.3693 40.8668 15.3693C41.2106 15.3693 41.4947 15.429 41.7191 15.5483C41.9435 15.6648 42.1197 15.8153 42.2475 16C42.3754 16.1847 42.4663 16.3764 42.5202 16.5753H42.5799L42.7631 15.4545H44.8384L43.7475 22.0256C43.6594 22.5824 43.445 23.0511 43.104 23.4318C42.7631 23.8125 42.3271 24.1009 41.7958 24.2969C41.2646 24.4929 40.6722 24.5909 40.0188 24.5909ZM40.7518 20.3935C41.0046 20.3935 41.2333 20.3267 41.4379 20.1932C41.6424 20.0597 41.8143 19.8679 41.9535 19.6179C42.0927 19.3679 42.1907 19.0682 42.2475 18.7188C42.3043 18.3636 42.3043 18.0582 42.2475 17.8026C42.1935 17.544 42.0884 17.3452 41.9322 17.206C41.7759 17.0668 41.57 16.9972 41.3143 16.9972C41.0558 16.9972 40.8256 17.0682 40.6239 17.2102C40.4251 17.3523 40.2575 17.5526 40.1211 17.8111C39.9876 18.0668 39.8938 18.3693 39.8398 18.7188C39.783 19.0682 39.7788 19.3679 39.8271 19.6179C39.8782 19.8679 39.9805 20.0597 40.1339 20.1932C40.2901 20.3267 40.4961 20.3935 40.7518 20.3935ZM47.6541 22L48.745 15.4545H50.8288L49.7379 22H47.6541ZM49.9339 14.6875C49.6385 14.6875 49.3984 14.5895 49.2138 14.3935C49.0291 14.1974 48.9567 13.9631 48.9964 13.6903C49.0362 13.4148 49.1754 13.1804 49.4141 12.9872C49.6527 12.794 49.9183 12.6974 50.2109 12.6974C50.5064 12.6974 50.7436 12.794 50.9226 12.9872C51.1044 13.1804 51.1754 13.4148 51.1357 13.6903C51.1016 13.9631 50.9652 14.1974 50.7266 14.3935C50.4908 14.5895 50.2266 14.6875 49.9339 14.6875ZM53.783 18.267L53.1609 22H51.0771L52.168 15.4545H54.1495L53.9535 16.6562H54.0259C54.2305 16.2557 54.5273 15.9418 54.9165 15.7145C55.3058 15.4844 55.7433 15.3693 56.229 15.3693C56.6864 15.3693 57.0685 15.4716 57.3754 15.6761C57.6822 15.8807 57.8995 16.1676 58.0273 16.5369C58.1552 16.9034 58.1765 17.3338 58.0913 17.8281L57.3924 22H55.3086L55.935 18.2372C55.9975 17.8764 55.9535 17.5937 55.8029 17.3892C55.6552 17.1818 55.4137 17.0781 55.0785 17.0781C54.8597 17.0781 54.6594 17.1264 54.4776 17.223C54.2987 17.3168 54.1481 17.4517 54.0259 17.6278C53.9066 17.804 53.8256 18.017 53.783 18.267Z" fill="white"/>
<path d="M183 1H109C99.0589 1 91 9.05887 91 19C91 28.9411 99.0589 37 109 37H183C192.941 37 201 28.9411 201 19C201 9.05887 192.941 1 183 1Z" fill="#111827"/>
<path d="M117.818 17.1236C117.801 16.9446 117.761 16.7869 117.699 16.6506C117.636 16.5114 117.551 16.3935 117.443 16.2969C117.335 16.2003 117.202 16.1278 117.043 16.0795C116.884 16.0284 116.699 16.0028 116.489 16.0028C116.068 16.0028 115.679 16.1051 115.321 16.3097C114.963 16.5142 114.661 16.8125 114.413 17.2045C114.166 17.5937 113.997 18.0668 113.906 18.6236C113.815 19.1832 113.813 19.6605 113.898 20.0554C113.986 20.4503 114.162 20.7514 114.426 20.9588C114.69 21.1662 115.04 21.2699 115.474 21.2699C115.864 21.2699 116.207 21.2074 116.506 21.0824C116.804 20.9545 117.045 20.7741 117.23 20.5412C117.418 20.3082 117.536 20.0341 117.584 19.7188L117.972 19.7656H115.849L116.105 18.2273H119.864L119.672 19.3821C119.544 20.1634 119.268 20.8324 118.845 21.3892C118.425 21.946 117.899 22.3736 117.268 22.6719C116.641 22.9702 115.952 23.1193 115.202 23.1193C114.372 23.1193 113.672 22.9389 113.101 22.5781C112.53 22.2173 112.124 21.7031 111.882 21.0355C111.641 20.3651 111.595 19.5696 111.746 18.6491C111.865 17.9332 112.077 17.2983 112.381 16.7443C112.688 16.1875 113.063 15.7159 113.506 15.3295C113.952 14.9432 114.445 14.6506 114.984 14.4517C115.524 14.2528 116.085 14.1534 116.668 14.1534C117.17 14.1534 117.628 14.2259 118.04 14.3707C118.452 14.5156 118.804 14.7202 119.097 14.9844C119.389 15.2486 119.609 15.5625 119.757 15.9261C119.908 16.2898 119.973 16.6889 119.953 17.1236H117.818ZM123.357 23.1236C122.672 23.1236 122.104 22.9886 121.652 22.7188C121.203 22.446 120.888 22.0582 120.706 21.5554C120.525 21.0497 120.492 20.4489 120.608 19.7528C120.722 19.0767 120.953 18.4858 121.303 17.9801C121.655 17.4716 122.098 17.0767 122.632 16.7955C123.167 16.5114 123.762 16.3693 124.418 16.3693C124.884 16.3693 125.297 16.4418 125.658 16.5866C126.019 16.7315 126.317 16.9474 126.553 17.2344C126.789 17.5185 126.949 17.8679 127.034 18.2827C127.12 18.6974 127.117 19.1733 127.026 19.7102L126.945 20.2301H121.26L121.452 19.0199H125.202C125.236 18.7983 125.218 18.6009 125.147 18.4276C125.076 18.2543 124.961 18.1193 124.801 18.0227C124.645 17.9233 124.453 17.8736 124.226 17.8736C123.996 17.8736 123.78 17.9276 123.578 18.0355C123.38 18.1406 123.211 18.2827 123.071 18.4616C122.932 18.6406 122.841 18.8423 122.799 19.0668L122.573 20.3068C122.527 20.5824 122.54 20.8182 122.611 21.0142C122.682 21.2102 122.804 21.3608 122.978 21.4659C123.151 21.5682 123.374 21.6193 123.647 21.6193C123.828 21.6193 123.999 21.5952 124.158 21.5469C124.317 21.4957 124.459 21.4205 124.584 21.321C124.712 21.2187 124.816 21.0952 124.895 20.9503L126.796 21.0057C126.642 21.4347 126.405 21.8082 126.084 22.1264C125.763 22.4418 125.371 22.6875 124.908 22.8636C124.448 23.0369 123.931 23.1236 123.357 23.1236ZM132.33 16.4545L132.07 17.9886H127.941L128.201 16.4545H132.33ZM129.322 14.8864H131.406L130.4 20.9418C130.38 21.0696 130.383 21.1733 130.408 21.2528C130.437 21.3295 130.488 21.3849 130.562 21.419C130.638 21.4503 130.732 21.4659 130.843 21.4659C130.92 21.4659 131.005 21.4574 131.099 21.4403C131.192 21.4233 131.263 21.4105 131.312 21.402L131.38 22.9062C131.269 22.9375 131.12 22.973 130.933 23.0128C130.748 23.0554 130.532 23.0824 130.285 23.0938C129.785 23.1136 129.371 23.0554 129.045 22.919C128.721 22.7798 128.492 22.5639 128.359 22.2713C128.228 21.9787 128.202 21.6122 128.282 21.1719L129.322 14.8864ZM141.337 18.4531L139.457 18.5043C139.46 18.3651 139.429 18.2429 139.364 18.1378C139.298 18.0298 139.206 17.946 139.087 17.8864C138.967 17.8267 138.825 17.7969 138.661 17.7969C138.393 17.7969 138.153 17.8565 137.94 17.9759C137.73 18.0952 137.612 18.25 137.587 18.4403C137.567 18.5426 137.595 18.6321 137.672 18.7088C137.749 18.7827 137.919 18.848 138.183 18.9048L139.411 19.1435C140.041 19.2685 140.499 19.4858 140.783 19.7955C141.07 20.1023 141.172 20.5085 141.089 21.0142C141.016 21.446 140.825 21.8196 140.518 22.1349C140.214 22.4503 139.827 22.6946 139.355 22.8679C138.886 23.0384 138.368 23.1236 137.8 23.1236C136.839 23.1236 136.115 22.9304 135.626 22.544C135.141 22.1548 134.913 21.6392 134.945 20.9972L136.973 20.946C136.982 21.1875 137.062 21.3693 137.216 21.4915C137.372 21.6108 137.584 21.6733 137.851 21.679C138.143 21.6847 138.396 21.6236 138.609 21.4957C138.822 21.3679 138.942 21.2102 138.967 21.0227C138.984 20.9006 138.943 20.8054 138.844 20.7372C138.747 20.669 138.567 20.608 138.303 20.554L137.195 20.3366C136.558 20.2145 136.098 19.9844 135.814 19.6463C135.533 19.3054 135.436 18.8707 135.524 18.3423C135.598 17.9219 135.771 17.5653 136.044 17.2727C136.32 16.9773 136.679 16.7528 137.122 16.5994C137.568 16.446 138.077 16.3693 138.648 16.3693C139.563 16.3693 140.253 16.5554 140.719 16.9276C141.188 17.2969 141.393 17.8054 141.337 18.4531ZM146.569 16.4545L146.309 17.9886H142.179L142.439 16.4545H146.569ZM143.56 14.8864H145.644L144.638 20.9418C144.618 21.0696 144.621 21.1733 144.647 21.2528C144.675 21.3295 144.726 21.3849 144.8 21.419C144.877 21.4503 144.971 21.4659 145.081 21.4659C145.158 21.4659 145.243 21.4574 145.337 21.4403C145.431 21.4233 145.502 21.4105 145.55 21.402L145.618 22.9062C145.507 22.9375 145.358 22.973 145.171 23.0128C144.986 23.0554 144.77 23.0824 144.523 23.0938C144.023 23.1136 143.61 23.0554 143.283 22.919C142.959 22.7798 142.73 22.5639 142.597 22.2713C142.466 21.9787 142.441 21.6122 142.52 21.1719L143.56 14.8864ZM148.369 23.1108C147.954 23.1108 147.596 23.0412 147.295 22.902C146.997 22.7599 146.778 22.5455 146.639 22.2585C146.502 21.9716 146.47 21.6136 146.541 21.1847C146.603 20.821 146.718 20.5156 146.886 20.2685C147.056 20.0185 147.265 19.8153 147.512 19.6591C147.762 19.5028 148.041 19.3835 148.348 19.3011C148.654 19.2187 148.975 19.1634 149.311 19.1349C149.686 19.1009 149.99 19.0639 150.223 19.0241C150.458 18.9844 150.635 18.929 150.751 18.858C150.868 18.7841 150.939 18.6818 150.964 18.5511V18.5298C150.998 18.3111 150.951 18.142 150.824 18.0227C150.696 17.9034 150.504 17.8438 150.248 17.8438C149.975 17.8438 149.743 17.9034 149.549 18.0227C149.356 18.142 149.221 18.3068 149.145 18.517L147.235 18.4489C147.355 18.0511 147.559 17.696 147.849 17.3835C148.139 17.0682 148.507 16.821 148.953 16.642C149.402 16.4602 149.92 16.3693 150.508 16.3693C150.923 16.3693 151.298 16.419 151.633 16.5185C151.968 16.6151 152.251 16.7571 152.481 16.9446C152.714 17.1293 152.88 17.3565 152.98 17.6264C153.079 17.8963 153.1 18.2045 153.044 18.5511L152.298 23H150.338L150.491 22.0881H150.44C150.287 22.3097 150.106 22.4972 149.899 22.6506C149.694 22.804 149.464 22.919 149.208 22.9957C148.953 23.0724 148.673 23.1108 148.369 23.1108ZM149.247 21.7472C149.466 21.7472 149.673 21.7017 149.869 21.6108C150.065 21.5199 150.23 21.3949 150.363 21.2358C150.5 21.0739 150.586 20.8864 150.623 20.6733L150.721 20.0511C150.662 20.0824 150.586 20.1108 150.495 20.1364C150.404 20.1619 150.308 20.1861 150.206 20.2088C150.103 20.2287 149.998 20.2486 149.89 20.2685C149.785 20.2855 149.684 20.3011 149.588 20.3153C149.383 20.3466 149.206 20.3949 149.055 20.4602C148.904 20.5256 148.784 20.6108 148.693 20.7159C148.605 20.8182 148.551 20.9403 148.531 21.0824C148.497 21.2955 148.547 21.4602 148.68 21.5767C148.814 21.6903 149.002 21.7472 149.247 21.7472ZM153.572 23L154.663 16.4545H156.687L156.487 17.6477H156.555C156.745 17.2159 156.994 16.8949 157.301 16.6847C157.608 16.4716 157.94 16.3651 158.298 16.3651C158.395 16.3651 158.491 16.3722 158.588 16.3864C158.687 16.3977 158.781 16.4148 158.869 16.4375L158.562 18.2528C158.466 18.2159 158.339 18.1889 158.183 18.1719C158.027 18.152 157.885 18.142 157.757 18.142C157.51 18.142 157.279 18.1974 157.066 18.3082C156.856 18.4162 156.677 18.5682 156.529 18.7642C156.385 18.9574 156.289 19.1847 156.244 19.446L155.656 23H153.572ZM163.713 16.4545L163.453 17.9886H159.324L159.584 16.4545H163.713ZM160.705 14.8864H162.788L161.783 20.9418C161.763 21.0696 161.766 21.1733 161.791 21.2528C161.82 21.3295 161.871 21.3849 161.945 21.419C162.021 21.4503 162.115 21.4659 162.226 21.4659C162.303 21.4659 162.388 21.4574 162.482 21.4403C162.575 21.4233 162.646 21.4105 162.695 21.402L162.763 22.9062C162.652 22.9375 162.503 22.973 162.315 23.0128C162.131 23.0554 161.915 23.0824 161.668 23.0938C161.168 23.1136 160.754 23.0554 160.428 22.919C160.104 22.7798 159.875 22.5639 159.741 22.2713C159.611 21.9787 159.585 21.6122 159.665 21.1719L160.705 14.8864ZM166.658 23.1236C165.973 23.1236 165.405 22.9886 164.953 22.7188C164.504 22.446 164.189 22.0582 164.007 21.5554C163.825 21.0497 163.793 20.4489 163.909 19.7528C164.023 19.0767 164.254 18.4858 164.604 17.9801C164.956 17.4716 165.399 17.0767 165.933 16.7955C166.467 16.5114 167.062 16.3693 167.719 16.3693C168.185 16.3693 168.598 16.4418 168.959 16.5866C169.32 16.7315 169.618 16.9474 169.854 17.2344C170.089 17.5185 170.25 17.8679 170.335 18.2827C170.42 18.6974 170.418 19.1733 170.327 19.7102L170.246 20.2301H164.561L164.753 19.0199H168.503C168.537 18.7983 168.518 18.6009 168.447 18.4276C168.376 18.2543 168.261 18.1193 168.102 18.0227C167.946 17.9233 167.754 17.8736 167.527 17.8736C167.297 17.8736 167.081 17.9276 166.879 18.0355C166.68 18.1406 166.511 18.2827 166.372 18.4616C166.233 18.6406 166.142 18.8423 166.099 19.0668L165.874 20.3068C165.828 20.5824 165.841 20.8182 165.912 21.0142C165.983 21.2102 166.105 21.3608 166.278 21.4659C166.452 21.5682 166.675 21.6193 166.947 21.6193C167.129 21.6193 167.3 21.5952 167.459 21.5469C167.618 21.4957 167.76 21.4205 167.885 21.321C168.013 21.2187 168.116 21.0952 168.196 20.9503L170.097 21.0057C169.943 21.4347 169.706 21.8082 169.385 22.1264C169.064 22.4418 168.672 22.6875 168.209 22.8636C167.749 23.0369 167.232 23.1236 166.658 23.1236ZM173.228 23.0938C172.745 23.0938 172.326 22.9688 171.971 22.7188C171.615 22.4688 171.361 22.0938 171.208 21.5938C171.057 21.0938 171.043 20.473 171.165 19.7315C171.293 18.9616 171.52 18.3281 171.847 17.831C172.174 17.3338 172.554 16.9659 172.989 16.7273C173.426 16.4886 173.873 16.3693 174.327 16.3693C174.671 16.3693 174.955 16.429 175.179 16.5483C175.407 16.6648 175.584 16.8153 175.712 17C175.84 17.1847 175.928 17.3764 175.976 17.5753H176.023L176.573 14.2727H178.657L177.208 23H175.145L175.32 21.9389H175.256C175.134 22.1406 174.978 22.3295 174.787 22.5057C174.597 22.6818 174.371 22.8239 174.11 22.9318C173.851 23.0398 173.557 23.0938 173.228 23.0938ZM174.212 21.4702C174.465 21.4702 174.694 21.3991 174.898 21.2571C175.103 21.1122 175.275 20.9091 175.414 20.6477C175.556 20.3864 175.655 20.0795 175.712 19.7273C175.772 19.3693 175.775 19.0611 175.721 18.8026C175.667 18.544 175.56 18.3452 175.401 18.206C175.245 18.0668 175.039 17.9972 174.783 17.9972C174.527 17.9972 174.299 18.0682 174.097 18.2102C173.895 18.3523 173.728 18.5526 173.594 18.8111C173.461 19.0696 173.364 19.375 173.304 19.7273C173.248 20.0795 173.242 20.3864 173.287 20.6477C173.336 20.9091 173.436 21.1122 173.59 21.2571C173.746 21.3991 173.953 21.4702 174.212 21.4702Z" fill="white"/>
</svg>
