<svg width="29" height="23" viewBox="0 0 29 23" fill="none" xmlns="http://www.w3.org/2000/svg">
<path fill-rule="evenodd" clip-rule="evenodd" d="M13.6626 0.209294C14.1731 -0.0697646 14.8269 -0.0697646 15.3374 0.209294L28.2837 7.28622C29.0064 7.68126 29.2173 8.50188 28.7548 9.11913C28.2923 9.73638 27.3315 9.91651 26.6088 9.52147L25.3749 8.84695V19.4615C25.3749 21.4158 23.5201 23 21.2321 23H7.76794C5.47994 23 3.62514 21.4158 3.62514 19.4615V8.84695L2.39119 9.52147C1.66852 9.91651 0.707741 9.73638 0.245232 9.11913C-0.217278 8.50188 -0.00637518 7.68126 0.716296 7.28622L13.6626 0.209294ZM9.3215 13.0481C9.3215 13.7019 9.6235 14.2955 10.1149 14.7326L13.758 17.9265C14.1646 18.2829 14.8353 18.2829 15.2418 17.9264L18.8114 14.7959C19.3461 14.3536 19.6785 13.734 19.6785 13.0481C19.6785 11.7045 18.4033 10.6154 16.8303 10.6154C15.867 10.6154 15.0154 11.5214 14.5 12.1466C13.9845 11.5214 13.133 10.6154 12.1697 10.6154C10.5967 10.6154 9.3215 11.7045 9.3215 13.0481Z" fill="white"/>
</svg>
