<svg width="1440" height="900" viewBox="0 0 1440 900" fill="none" xmlns="http://www.w3.org/2000/svg">
<g clip-path="url(#clip0_174_1796)">
<path d="M1440 0H0V900H1440V0Z" fill="white"/>
<path d="M1440 1H0V901H1440V1Z" fill="url(#paint0_linear_174_1796)"/>
<path d="M1440 1H0V901H1440V1Z" fill="url(#paint1_linear_174_1796)"/>
<path d="M811.8 533H628.2C619.253 533 612 539.716 612 548V578C612 586.284 619.253 593 628.2 593H811.8C820.747 593 828 586.284 828 578V548C828 539.716 820.747 533 811.8 533Z" fill="#7C3AED"/>
<path d="M692.69 558.616C692.719 557.906 692.511 557.358 692.068 556.972C691.631 556.585 690.969 556.392 690.082 556.392C689.48 556.392 688.957 556.477 688.514 556.648C688.071 556.812 687.716 557.043 687.449 557.338C687.188 557.628 687.026 557.963 686.963 558.344C686.901 558.656 686.92 558.929 687.023 559.162C687.131 559.395 687.298 559.597 687.526 559.767C687.759 559.932 688.034 560.077 688.352 560.202C688.67 560.321 689.009 560.423 689.366 560.509L690.866 560.884C691.599 561.054 692.259 561.281 692.844 561.565C693.435 561.849 693.929 562.199 694.327 562.614C694.73 563.028 695.014 563.517 695.179 564.08C695.344 564.642 695.366 565.287 695.247 566.014C695.065 567.082 694.642 568.009 693.977 568.793C693.312 569.571 692.44 570.176 691.361 570.608C690.281 571.034 689.031 571.247 687.611 571.247C686.202 571.247 685.011 571.031 684.04 570.599C683.068 570.168 682.361 569.528 681.918 568.682C681.48 567.83 681.349 566.776 681.526 565.52H685.097C685.034 566.105 685.119 566.594 685.352 566.986C685.591 567.372 685.946 567.665 686.418 567.864C686.889 568.057 687.443 568.153 688.08 568.153C688.71 568.153 689.27 568.062 689.759 567.881C690.253 567.699 690.653 567.446 690.96 567.122C691.267 566.798 691.455 566.426 691.523 566.006C691.591 565.614 691.531 565.284 691.344 565.017C691.156 564.75 690.855 564.523 690.44 564.335C690.031 564.142 689.523 563.972 688.915 563.824L687.091 563.347C685.682 562.989 684.616 562.429 683.895 561.668C683.173 560.906 682.915 559.881 683.119 558.591C683.301 557.534 683.741 556.611 684.44 555.821C685.145 555.026 686.031 554.409 687.099 553.972C688.173 553.528 689.347 553.307 690.619 553.307C691.915 553.307 693.009 553.531 693.901 553.98C694.793 554.423 695.443 555.043 695.852 555.838C696.261 556.634 696.386 557.56 696.227 558.616H692.69ZM698.624 556.588L699.136 553.545H713.471L712.96 556.588H707.616L705.229 571H701.582L703.968 556.588H698.624ZM713.81 571H709.855L718.778 553.545H723.534L726.653 571H722.699L720.577 557.534H720.44L713.81 571ZM714.713 564.139H724.054L723.56 567.02H714.219L714.713 564.139ZM728.754 571L731.652 553.545H738.538C739.857 553.545 740.942 553.778 741.794 554.244C742.652 554.71 743.254 555.372 743.601 556.23C743.953 557.082 744.036 558.088 743.848 559.247C743.655 560.406 743.237 561.401 742.595 562.23C741.959 563.06 741.129 563.699 740.107 564.148C739.089 564.591 737.911 564.812 736.57 564.812H731.959L732.47 561.847H736.476C737.18 561.847 737.783 561.75 738.283 561.557C738.783 561.364 739.178 561.074 739.467 560.688C739.763 560.301 739.956 559.821 740.047 559.247C740.143 558.662 740.109 558.173 739.945 557.781C739.78 557.384 739.482 557.082 739.05 556.878C738.618 556.668 738.05 556.562 737.345 556.562H734.857L732.445 571H728.754ZM739.493 563.057L742.518 571H738.445L735.513 563.057H739.493ZM746.366 556.588L746.878 553.545H761.213L760.702 556.588H755.358L752.972 571H749.324L751.71 556.588H746.366Z" fill="white"/>
<path d="M277.136 435L284.864 388.455H303.227C306.742 388.455 309.636 389.076 311.909 390.318C314.197 391.561 315.803 393.326 316.727 395.614C317.667 397.886 317.886 400.568 317.386 403.659C316.871 406.75 315.758 409.402 314.045 411.614C312.348 413.826 310.136 415.53 307.409 416.727C304.697 417.909 301.553 418.5 297.977 418.5H285.682L287.045 410.591H297.727C299.606 410.591 301.212 410.333 302.545 409.818C303.879 409.303 304.932 408.53 305.705 407.5C306.492 406.47 307.008 405.189 307.25 403.659C307.508 402.098 307.417 400.795 306.977 399.75C306.538 398.689 305.742 397.886 304.591 397.341C303.439 396.78 301.924 396.5 300.045 396.5H293.409L286.977 435H277.136ZM305.773 413.818L313.841 435H302.977L295.159 413.818H305.773ZM334.585 435.682C331.009 435.682 328.047 434.955 325.699 433.5C323.35 432.03 321.699 429.955 320.744 427.273C319.805 424.576 319.646 421.386 320.267 417.705C320.873 414.114 322.093 410.962 323.926 408.25C325.775 405.538 328.093 403.424 330.881 401.909C333.669 400.394 336.775 399.636 340.199 399.636C342.502 399.636 344.585 400.008 346.449 400.75C348.328 401.477 349.888 402.583 351.131 404.068C352.373 405.538 353.222 407.379 353.676 409.591C354.146 411.803 354.138 414.394 353.653 417.364L353.222 420.023H323.767L324.699 414.023H345.062C345.29 412.629 345.199 411.394 344.79 410.318C344.381 409.242 343.699 408.402 342.744 407.795C341.79 407.174 340.616 406.864 339.222 406.864C337.797 406.864 336.464 407.212 335.222 407.909C333.979 408.606 332.934 409.523 332.085 410.659C331.252 411.78 330.714 413 330.472 414.318L329.403 420.273C329.1 422.106 329.161 423.629 329.585 424.841C330.025 426.053 330.782 426.962 331.858 427.568C332.934 428.159 334.297 428.455 335.949 428.455C337.025 428.455 338.032 428.303 338.972 428C339.926 427.697 340.775 427.25 341.517 426.659C342.259 426.053 342.866 425.303 343.335 424.409L352.176 425C351.358 427.152 350.116 429.03 348.449 430.636C346.782 432.227 344.775 433.47 342.426 434.364C340.093 435.242 337.479 435.682 334.585 435.682ZM366.943 435.659C364.731 435.659 362.814 435.273 361.193 434.5C359.587 433.712 358.405 432.545 357.648 431C356.89 429.455 356.701 427.538 357.08 425.25C357.413 423.311 358.042 421.689 358.966 420.386C359.905 419.068 361.049 418.008 362.398 417.205C363.746 416.402 365.239 415.788 366.875 415.364C368.527 414.939 370.231 414.652 371.989 414.5C374.019 414.288 375.67 414.083 376.943 413.886C378.231 413.689 379.193 413.409 379.83 413.045C380.466 412.667 380.852 412.106 380.989 411.364V411.227C381.216 409.803 380.951 408.697 380.193 407.909C379.451 407.106 378.261 406.705 376.625 406.705C374.898 406.705 373.428 407.083 372.216 407.841C371.019 408.598 370.163 409.561 369.648 410.727L360.83 410C361.617 407.879 362.807 406.045 364.398 404.5C366.004 402.939 367.936 401.742 370.193 400.909C372.451 400.061 374.981 399.636 377.784 399.636C379.723 399.636 381.534 399.864 383.216 400.318C384.913 400.773 386.375 401.477 387.602 402.432C388.845 403.386 389.739 404.614 390.284 406.114C390.845 407.598 390.958 409.379 390.625 411.455L386.693 435H377.511L378.33 430.159H378.057C377.314 431.25 376.405 432.212 375.33 433.045C374.254 433.864 373.019 434.508 371.625 434.977C370.231 435.432 368.67 435.659 366.943 435.659ZM370.83 428.977C372.239 428.977 373.534 428.697 374.716 428.136C375.913 427.561 376.898 426.788 377.67 425.818C378.458 424.848 378.958 423.75 379.17 422.523L379.761 418.818C379.458 419.015 379.019 419.189 378.443 419.341C377.883 419.492 377.269 419.636 376.602 419.773C375.951 419.894 375.292 420.008 374.625 420.114C373.958 420.205 373.36 420.295 372.83 420.386C371.663 420.553 370.617 420.818 369.693 421.182C368.769 421.545 368.019 422.038 367.443 422.659C366.867 423.265 366.511 424.023 366.375 424.932C366.163 426.25 366.473 427.258 367.307 427.955C368.155 428.636 369.33 428.977 370.83 428.977ZM407.023 435.568C404.356 435.568 402.061 434.886 400.136 433.523C398.227 432.144 396.864 430.121 396.045 427.455C395.242 424.773 395.167 421.485 395.818 417.591C396.485 413.591 397.682 410.265 399.409 407.614C401.136 404.947 403.182 402.955 405.545 401.636C407.909 400.303 410.371 399.636 412.932 399.636C414.871 399.636 416.439 399.97 417.636 400.636C418.848 401.288 419.78 402.106 420.432 403.091C421.083 404.061 421.538 405.015 421.795 405.955H422.091L425.023 388.455H434.682L426.955 435H417.409L418.341 429.409H417.932C417.326 430.379 416.523 431.341 415.523 432.295C414.538 433.235 413.341 434.015 411.932 434.636C410.538 435.258 408.902 435.568 407.023 435.568ZM411.295 427.864C412.841 427.864 414.235 427.439 415.477 426.591C416.72 425.727 417.765 424.523 418.614 422.977C419.462 421.432 420.053 419.621 420.386 417.545C420.735 415.47 420.742 413.667 420.409 412.136C420.076 410.606 419.424 409.424 418.455 408.591C417.5 407.758 416.235 407.341 414.659 407.341C413.068 407.341 411.659 407.773 410.432 408.636C409.22 409.5 408.212 410.697 407.409 412.227C406.621 413.758 406.061 415.53 405.727 417.545C405.394 419.576 405.371 421.371 405.659 422.932C405.947 424.477 406.561 425.689 407.5 426.568C408.439 427.432 409.705 427.864 411.295 427.864ZM438.733 448.091C437.491 448.091 436.354 447.992 435.324 447.795C434.294 447.614 433.445 447.379 432.778 447.091L436.188 439.864C437.263 440.212 438.241 440.394 439.119 440.409C440.013 440.424 440.831 440.197 441.574 439.727C442.316 439.258 442.998 438.485 443.619 437.409L444.483 435.932L437.938 400.091H447.756L450.71 425.773H451.074L462.642 400.091H473.256L453.278 438.773C452.294 440.667 451.127 442.311 449.778 443.705C448.445 445.098 446.862 446.174 445.028 446.932C443.21 447.705 441.112 448.091 438.733 448.091ZM511.591 400.091L510.386 407.364H489.341L490.568 400.091H511.591ZM496.705 391.727H506.386L500.977 424.273C500.826 425.167 500.848 425.864 501.045 426.364C501.242 426.848 501.568 427.189 502.023 427.386C502.492 427.583 503.053 427.682 503.705 427.682C504.159 427.682 504.621 427.644 505.091 427.568C505.561 427.477 505.917 427.409 506.159 427.364L506.523 434.568C505.977 434.735 505.242 434.917 504.318 435.114C503.409 435.311 502.333 435.432 501.091 435.477C498.727 435.568 496.727 435.258 495.091 434.545C493.455 433.818 492.28 432.705 491.568 431.205C490.856 429.705 490.705 427.818 491.114 425.545L496.705 391.727ZM527.523 435.682C523.962 435.682 521.015 434.924 518.682 433.409C516.348 431.879 514.705 429.758 513.75 427.045C512.811 424.318 512.636 421.144 513.227 417.523C513.803 413.947 515 410.818 516.818 408.136C518.636 405.455 520.947 403.371 523.75 401.886C526.553 400.386 529.712 399.636 533.227 399.636C536.773 399.636 539.712 400.402 542.045 401.932C544.379 403.447 546.023 405.568 546.977 408.295C547.932 411.023 548.114 414.197 547.523 417.818C546.932 421.379 545.72 424.5 543.886 427.182C542.053 429.864 539.742 431.955 536.955 433.455C534.167 434.939 531.023 435.682 527.523 435.682ZM528.477 428.182C530.114 428.182 531.561 427.72 532.818 426.795C534.091 425.856 535.144 424.583 535.977 422.977C536.826 421.356 537.417 419.523 537.75 417.477C538.083 415.462 538.106 413.674 537.818 412.114C537.53 410.538 536.924 409.295 536 408.386C535.091 407.477 533.841 407.023 532.25 407.023C530.614 407.023 529.159 407.492 527.886 408.432C526.614 409.356 525.561 410.629 524.727 412.25C523.894 413.871 523.311 415.712 522.977 417.773C522.659 419.773 522.636 421.561 522.909 423.136C523.182 424.697 523.78 425.932 524.705 426.841C525.629 427.735 526.886 428.182 528.477 428.182ZM598.926 410.045L590.131 410.591C590.085 409.818 589.873 409.129 589.494 408.523C589.131 407.902 588.593 407.409 587.881 407.045C587.184 406.682 586.305 406.5 585.244 406.5C583.653 406.5 582.237 406.864 580.994 407.591C579.752 408.318 579.047 409.25 578.881 410.386C578.744 411.114 578.934 411.727 579.449 412.227C579.964 412.727 581.002 413.152 582.562 413.5L588.699 414.773C591.972 415.47 594.335 416.629 595.79 418.25C597.259 419.871 597.782 421.992 597.358 424.614C596.979 426.841 596.002 428.788 594.426 430.455C592.85 432.106 590.85 433.394 588.426 434.318C586.002 435.227 583.313 435.682 580.358 435.682C575.616 435.682 572.009 434.712 569.54 432.773C567.07 430.833 565.881 428.205 565.972 424.886L575.426 424.386C575.502 425.811 576.002 426.886 576.926 427.614C577.85 428.326 579.116 428.689 580.722 428.705C582.525 428.735 584.055 428.364 585.312 427.591C586.585 426.803 587.305 425.848 587.472 424.727C587.593 423.939 587.366 423.303 586.79 422.818C586.229 422.333 585.199 421.932 583.699 421.614L577.881 420.409C574.578 419.727 572.206 418.508 570.767 416.75C569.328 414.992 568.835 412.758 569.29 410.045C569.653 407.879 570.555 406.023 571.994 404.477C573.449 402.917 575.32 401.72 577.608 400.886C579.911 400.053 582.509 399.636 585.403 399.636C589.934 399.636 593.343 400.568 595.631 402.432C597.934 404.295 599.032 406.833 598.926 410.045ZM626.091 400.091L624.886 407.364H603.841L605.068 400.091H626.091ZM611.205 391.727H620.886L615.477 424.273C615.326 425.167 615.348 425.864 615.545 426.364C615.742 426.848 616.068 427.189 616.523 427.386C616.992 427.583 617.553 427.682 618.205 427.682C618.659 427.682 619.121 427.644 619.591 427.568C620.061 427.477 620.417 427.409 620.659 427.364L621.023 434.568C620.477 434.735 619.742 434.917 618.818 435.114C617.909 435.311 616.833 435.432 615.591 435.477C613.227 435.568 611.227 435.258 609.591 434.545C607.955 433.818 606.78 432.705 606.068 431.205C605.356 429.705 605.205 427.818 605.614 425.545L611.205 391.727ZM636.443 435.659C634.231 435.659 632.314 435.273 630.693 434.5C629.087 433.712 627.905 432.545 627.148 431C626.39 429.455 626.201 427.538 626.58 425.25C626.913 423.311 627.542 421.689 628.466 420.386C629.405 419.068 630.549 418.008 631.898 417.205C633.246 416.402 634.739 415.788 636.375 415.364C638.027 414.939 639.731 414.652 641.489 414.5C643.519 414.288 645.17 414.083 646.443 413.886C647.731 413.689 648.693 413.409 649.33 413.045C649.966 412.667 650.352 412.106 650.489 411.364V411.227C650.716 409.803 650.451 408.697 649.693 407.909C648.951 407.106 647.761 406.705 646.125 406.705C644.398 406.705 642.928 407.083 641.716 407.841C640.519 408.598 639.663 409.561 639.148 410.727L630.33 410C631.117 407.879 632.307 406.045 633.898 404.5C635.504 402.939 637.436 401.742 639.693 400.909C641.951 400.061 644.481 399.636 647.284 399.636C649.223 399.636 651.034 399.864 652.716 400.318C654.413 400.773 655.875 401.477 657.102 402.432C658.345 403.386 659.239 404.614 659.784 406.114C660.345 407.598 660.458 409.379 660.125 411.455L656.193 435H647.011L647.83 430.159H647.557C646.814 431.25 645.905 432.212 644.83 433.045C643.754 433.864 642.519 434.508 641.125 434.977C639.731 435.432 638.17 435.659 636.443 435.659ZM640.33 428.977C641.739 428.977 643.034 428.697 644.216 428.136C645.413 427.561 646.398 426.788 647.17 425.818C647.958 424.848 648.458 423.75 648.67 422.523L649.261 418.818C648.958 419.015 648.519 419.189 647.943 419.341C647.383 419.492 646.769 419.636 646.102 419.773C645.451 419.894 644.792 420.008 644.125 420.114C643.458 420.205 642.86 420.295 642.33 420.386C641.163 420.553 640.117 420.818 639.193 421.182C638.269 421.545 637.519 422.038 636.943 422.659C636.367 423.265 636.011 424.023 635.875 424.932C635.663 426.25 635.973 427.258 636.807 427.955C637.655 428.636 638.83 428.977 640.33 428.977ZM663.705 435L669.523 400.091H678.909L677.886 406.182H678.25C679.25 404.015 680.591 402.379 682.273 401.273C683.97 400.152 685.795 399.591 687.75 399.591C688.235 399.591 688.742 399.621 689.273 399.682C689.818 399.727 690.303 399.803 690.727 399.909L689.273 408.523C688.848 408.371 688.242 408.25 687.455 408.159C686.682 408.053 685.947 408 685.25 408C683.841 408 682.53 408.311 681.318 408.932C680.106 409.538 679.083 410.386 678.25 411.477C677.432 412.568 676.894 413.826 676.636 415.25L673.386 435H663.705ZM716.028 400.091L714.824 407.364H693.778L695.006 400.091H716.028ZM701.142 391.727H710.824L705.415 424.273C705.263 425.167 705.286 425.864 705.483 426.364C705.68 426.848 706.006 427.189 706.46 427.386C706.93 427.583 707.491 427.682 708.142 427.682C708.597 427.682 709.059 427.644 709.528 427.568C709.998 427.477 710.354 427.409 710.597 427.364L710.96 434.568C710.415 434.735 709.68 434.917 708.756 435.114C707.847 435.311 706.771 435.432 705.528 435.477C703.165 435.568 701.165 435.258 699.528 434.545C697.892 433.818 696.718 432.705 696.006 431.205C695.294 429.705 695.142 427.818 695.551 425.545L701.142 391.727ZM738.216 435L734.534 400.091H744.33L745.83 423.545H746.148L755.693 400.091H765.307L767.125 423.409H767.42L776.648 400.091H786.42L771.125 435H760.875L758.511 413.045H758.08L748.443 435H738.216ZM785.767 435L791.585 400.091H801.267L795.449 435H785.767ZM797.426 395.545C795.987 395.545 794.797 395.068 793.858 394.114C792.934 393.144 792.555 391.992 792.722 390.659C792.888 389.295 793.54 388.144 794.676 387.205C795.813 386.25 797.1 385.773 798.54 385.773C799.979 385.773 801.153 386.25 802.062 387.205C802.972 388.144 803.35 389.295 803.199 390.659C803.047 391.992 802.403 393.144 801.267 394.114C800.146 395.068 798.866 395.545 797.426 395.545ZM827.591 400.091L826.386 407.364H805.341L806.568 400.091H827.591ZM812.705 391.727H822.386L816.977 424.273C816.826 425.167 816.848 425.864 817.045 426.364C817.242 426.848 817.568 427.189 818.023 427.386C818.492 427.583 819.053 427.682 819.705 427.682C820.159 427.682 820.621 427.644 821.091 427.568C821.561 427.477 821.917 427.409 822.159 427.364L822.523 434.568C821.977 434.735 821.242 434.917 820.318 435.114C819.409 435.311 818.333 435.432 817.091 435.477C814.727 435.568 812.727 435.258 811.091 434.545C809.455 433.818 808.28 432.705 807.568 431.205C806.856 429.705 806.705 427.818 807.114 425.545L812.705 391.727ZM841.92 414.818L838.557 435H828.898L836.625 388.455H846.011L843.102 406.25H843.489C844.61 404.189 846.148 402.576 848.102 401.409C850.057 400.227 852.367 399.636 855.034 399.636C857.458 399.636 859.481 400.167 861.102 401.227C862.739 402.273 863.898 403.78 864.58 405.75C865.261 407.705 865.375 410.045 864.92 412.773L861.193 435H851.534L854.943 414.5C855.292 412.348 855.011 410.674 854.102 409.477C853.208 408.28 851.784 407.682 849.83 407.682C848.511 407.682 847.299 407.962 846.193 408.523C845.087 409.083 844.155 409.902 843.398 410.977C842.655 412.038 842.163 413.318 841.92 414.818ZM883.761 435L891.489 388.455H922.852L921.489 396.568H899.966L898.148 407.659H918.057L916.693 415.773H896.784L894.966 426.886H916.58L915.216 435H883.761ZM922.835 435L928.653 400.091H937.858L936.858 406.25H937.244C938.305 404.205 939.782 402.591 941.676 401.409C943.585 400.227 945.729 399.636 948.108 399.636C950.472 399.636 952.396 400.235 953.881 401.432C955.381 402.614 956.244 404.22 956.472 406.25H956.835C957.866 404.25 959.419 402.652 961.494 401.455C963.57 400.242 965.888 399.636 968.449 399.636C971.676 399.636 974.146 400.674 975.858 402.75C977.57 404.826 978.108 407.75 977.472 411.523L973.562 435H963.881L967.517 413.432C967.805 411.477 967.517 410.023 966.653 409.068C965.79 408.098 964.585 407.614 963.04 407.614C961.282 407.614 959.82 408.174 958.653 409.295C957.487 410.402 956.767 411.864 956.494 413.682L952.881 435H943.494L947.176 413.227C947.434 411.5 947.153 410.136 946.335 409.136C945.532 408.121 944.328 407.614 942.722 407.614C941.661 407.614 940.653 407.886 939.699 408.432C938.759 408.962 937.964 409.712 937.312 410.682C936.661 411.636 936.237 412.758 936.04 414.045L932.494 435H922.835ZM996.96 435.682C993.4 435.682 990.453 434.924 988.119 433.409C985.786 431.879 984.142 429.758 983.188 427.045C982.248 424.318 982.074 421.144 982.665 417.523C983.241 413.947 984.438 410.818 986.256 408.136C988.074 405.455 990.384 403.371 993.188 401.886C995.991 400.386 999.15 399.636 1002.66 399.636C1006.21 399.636 1009.15 400.402 1011.48 401.932C1013.82 403.447 1015.46 405.568 1016.41 408.295C1017.37 411.023 1017.55 414.197 1016.96 417.818C1016.37 421.379 1015.16 424.5 1013.32 427.182C1011.49 429.864 1009.18 431.955 1006.39 433.455C1003.6 434.939 1000.46 435.682 996.96 435.682ZM997.915 428.182C999.551 428.182 1001 427.72 1002.26 426.795C1003.53 425.856 1004.58 424.583 1005.41 422.977C1006.26 421.356 1006.85 419.523 1007.19 417.477C1007.52 415.462 1007.54 413.674 1007.26 412.114C1006.97 410.538 1006.36 409.295 1005.44 408.386C1004.53 407.477 1003.28 407.023 1001.69 407.023C1000.05 407.023 998.597 407.492 997.324 408.432C996.051 409.356 994.998 410.629 994.165 412.25C993.331 413.871 992.748 415.712 992.415 417.773C992.097 419.773 992.074 421.561 992.347 423.136C992.619 424.697 993.218 425.932 994.142 426.841C995.066 427.735 996.324 428.182 997.915 428.182ZM1033.21 435.568C1030.54 435.568 1028.25 434.886 1026.32 433.523C1024.41 432.144 1023.05 430.121 1022.23 427.455C1021.43 424.773 1021.35 421.485 1022.01 417.591C1022.67 413.591 1023.87 410.265 1025.6 407.614C1027.32 404.947 1029.37 402.955 1031.73 401.636C1034.1 400.303 1036.56 399.636 1039.12 399.636C1041.06 399.636 1042.63 399.97 1043.82 400.636C1045.04 401.288 1045.97 402.106 1046.62 403.091C1047.27 404.061 1047.73 405.015 1047.98 405.955H1048.28L1051.21 388.455H1060.87L1053.14 435H1043.6L1044.53 429.409H1044.12C1043.51 430.379 1042.71 431.341 1041.71 432.295C1040.73 433.235 1039.53 434.015 1038.12 434.636C1036.73 435.258 1035.09 435.568 1033.21 435.568ZM1037.48 427.864C1039.03 427.864 1040.42 427.439 1041.66 426.591C1042.91 425.727 1043.95 424.523 1044.8 422.977C1045.65 421.432 1046.24 419.621 1046.57 417.545C1046.92 415.47 1046.93 413.667 1046.6 412.136C1046.26 410.606 1045.61 409.424 1044.64 408.591C1043.69 407.758 1042.42 407.341 1040.85 407.341C1039.26 407.341 1037.85 407.773 1036.62 408.636C1035.41 409.5 1034.4 410.697 1033.6 412.227C1032.81 413.758 1032.25 415.53 1031.91 417.545C1031.58 419.576 1031.56 421.371 1031.85 422.932C1032.13 424.477 1032.75 425.689 1033.69 426.568C1034.63 427.432 1035.89 427.864 1037.48 427.864ZM1061.08 435L1066.9 400.091H1076.58L1070.76 435H1061.08ZM1072.74 395.545C1071.3 395.545 1070.11 395.068 1069.17 394.114C1068.25 393.144 1067.87 391.992 1068.03 390.659C1068.2 389.295 1068.85 388.144 1069.99 387.205C1071.13 386.25 1072.41 385.773 1073.85 385.773C1075.29 385.773 1076.47 386.25 1077.38 387.205C1078.28 388.144 1078.66 389.295 1078.51 390.659C1078.36 391.992 1077.72 393.144 1076.58 394.114C1075.46 395.068 1074.18 395.545 1072.74 395.545ZM1088.38 435.659C1086.17 435.659 1084.25 435.273 1082.63 434.5C1081.02 433.712 1079.84 432.545 1079.09 431C1078.33 429.455 1078.14 427.538 1078.52 425.25C1078.85 423.311 1079.48 421.689 1080.4 420.386C1081.34 419.068 1082.49 418.008 1083.84 417.205C1085.18 416.402 1086.68 415.788 1088.31 415.364C1089.96 414.939 1091.67 414.652 1093.43 414.5C1095.46 414.288 1097.11 414.083 1098.38 413.886C1099.67 413.689 1100.63 413.409 1101.27 413.045C1101.9 412.667 1102.29 412.106 1102.43 411.364V411.227C1102.65 409.803 1102.39 408.697 1101.63 407.909C1100.89 407.106 1099.7 406.705 1098.06 406.705C1096.34 406.705 1094.87 407.083 1093.65 407.841C1092.46 408.598 1091.6 409.561 1091.09 410.727L1082.27 410C1083.05 407.879 1084.24 406.045 1085.84 404.5C1087.44 402.939 1089.37 401.742 1091.63 400.909C1093.89 400.061 1096.42 399.636 1099.22 399.636C1101.16 399.636 1102.97 399.864 1104.65 400.318C1106.35 400.773 1107.81 401.477 1109.04 402.432C1110.28 403.386 1111.18 404.614 1111.72 406.114C1112.28 407.598 1112.4 409.379 1112.06 411.455L1108.13 435H1098.95L1099.77 430.159H1099.49C1098.75 431.25 1097.84 432.212 1096.77 433.045C1095.69 433.864 1094.46 434.508 1093.06 434.977C1091.67 435.432 1090.11 435.659 1088.38 435.659ZM1092.27 428.977C1093.68 428.977 1094.97 428.697 1096.15 428.136C1097.35 427.561 1098.34 426.788 1099.11 425.818C1099.9 424.848 1100.4 423.75 1100.61 422.523L1101.2 418.818C1100.9 419.015 1100.46 419.189 1099.88 419.341C1099.32 419.492 1098.71 419.636 1098.04 419.773C1097.39 419.894 1096.73 420.008 1096.06 420.114C1095.4 420.205 1094.8 420.295 1094.27 420.386C1093.1 420.553 1092.05 420.818 1091.13 421.182C1090.21 421.545 1089.46 422.038 1088.88 422.659C1088.3 423.265 1087.95 424.023 1087.81 424.932C1087.6 426.25 1087.91 427.258 1088.74 427.955C1089.59 428.636 1090.77 428.977 1092.27 428.977ZM1126.3 421.045L1126.46 420.159C1126.91 417.538 1127.51 415.447 1128.23 413.886C1128.98 412.326 1129.87 411.068 1130.91 410.114C1131.96 409.144 1133.17 408.265 1134.55 407.477C1135.57 406.871 1136.51 406.242 1137.37 405.591C1138.23 404.939 1138.95 404.22 1139.51 403.432C1140.08 402.629 1140.45 401.735 1140.6 400.75C1140.76 399.705 1140.66 398.788 1140.3 398C1139.94 397.212 1139.38 396.606 1138.62 396.182C1137.86 395.758 1136.97 395.545 1135.94 395.545C1134.95 395.545 1133.98 395.765 1133.03 396.205C1132.07 396.629 1131.24 397.265 1130.53 398.114C1129.83 398.947 1129.37 399.985 1129.14 401.227H1119.87C1120.43 398.197 1121.56 395.697 1123.26 393.727C1124.97 391.742 1127.04 390.265 1129.46 389.295C1131.9 388.311 1134.51 387.818 1137.28 387.818C1140.26 387.818 1142.83 388.318 1144.98 389.318C1147.13 390.303 1148.71 391.735 1149.71 393.614C1150.73 395.492 1151.01 397.758 1150.57 400.409C1150.29 402.197 1149.74 403.78 1148.94 405.159C1148.15 406.523 1147.14 407.735 1145.91 408.795C1144.69 409.841 1143.29 410.773 1141.73 411.591C1140.43 412.303 1139.33 413.045 1138.44 413.818C1137.54 414.576 1136.82 415.462 1136.28 416.477C1135.73 417.477 1135.33 418.705 1135.07 420.159L1134.91 421.045H1126.3ZM1128.82 435.591C1127.29 435.591 1126.04 435.061 1125.05 434C1124.08 432.939 1123.64 431.652 1123.73 430.136C1123.84 428.636 1124.47 427.371 1125.62 426.341C1126.79 425.295 1128.13 424.773 1129.64 424.773C1131.1 424.773 1132.32 425.295 1133.32 426.341C1134.32 427.386 1134.76 428.652 1134.64 430.136C1134.57 431.136 1134.24 432.053 1133.66 432.886C1133.1 433.705 1132.39 434.364 1131.53 434.864C1130.66 435.348 1129.76 435.591 1128.82 435.591Z" fill="black"/>
<g opacity="0.7">
<path d="M97.2727 89C112.335 89 124.545 77.3594 124.545 63C124.545 48.6406 112.335 37 97.2727 37C82.2104 37 70 48.6406 70 63C70 77.3594 82.2104 89 97.2727 89Z" fill="url(#paint2_linear_174_1796)"/>
<path d="M149.466 65.25V56.5227H154.733V57.4602H150.523V60.4091H154.46V61.3466H150.523V64.3125H154.801V65.25H149.466ZM156.502 65.25V58.7045H157.473V59.7273H157.558C157.695 59.3778 157.915 59.1065 158.219 58.9134C158.523 58.7173 158.888 58.6193 159.314 58.6193C159.746 58.6193 160.105 58.7173 160.392 58.9134C160.682 59.1065 160.908 59.3778 161.07 59.7273H161.138C161.305 59.3892 161.557 59.1207 161.892 58.9219C162.227 58.7202 162.629 58.6193 163.098 58.6193C163.683 58.6193 164.162 58.8026 164.534 59.169C164.906 59.5327 165.092 60.0994 165.092 60.8693V65.25H164.087V60.8693C164.087 60.3864 163.955 60.0412 163.69 59.8338C163.426 59.6264 163.115 59.5227 162.757 59.5227C162.297 59.5227 161.94 59.6619 161.688 59.9403C161.435 60.2159 161.308 60.5653 161.308 60.9886V65.25H160.286V60.767C160.286 60.3949 160.165 60.0952 159.923 59.8679C159.682 59.6378 159.371 59.5227 158.99 59.5227C158.729 59.5227 158.484 59.5923 158.257 59.7315C158.033 59.8707 157.851 60.0639 157.712 60.3111C157.575 60.5554 157.507 60.8381 157.507 61.1591V65.25H156.502ZM169.59 65.3864C168.999 65.3864 168.481 65.2457 168.035 64.9645C167.592 64.6832 167.245 64.2898 166.995 63.7841C166.748 63.2784 166.624 62.6875 166.624 62.0114C166.624 61.3295 166.748 60.7344 166.995 60.2259C167.245 59.7173 167.592 59.3224 168.035 59.0412C168.481 58.7599 168.999 58.6193 169.59 58.6193C170.181 58.6193 170.698 58.7599 171.141 59.0412C171.587 59.3224 171.934 59.7173 172.181 60.2259C172.431 60.7344 172.556 61.3295 172.556 62.0114C172.556 62.6875 172.431 63.2784 172.181 63.7841C171.934 64.2898 171.587 64.6832 171.141 64.9645C170.698 65.2457 170.181 65.3864 169.59 65.3864ZM169.59 64.483C170.039 64.483 170.408 64.3679 170.698 64.1378C170.988 63.9077 171.203 63.6051 171.342 63.2301C171.481 62.8551 171.551 62.4489 171.551 62.0114C171.551 61.5739 171.481 61.1662 171.342 60.7884C171.203 60.4105 170.988 60.1051 170.698 59.8722C170.408 59.6392 170.039 59.5227 169.59 59.5227C169.141 59.5227 168.772 59.6392 168.482 59.8722C168.193 60.1051 167.978 60.4105 167.839 60.7884C167.7 61.1662 167.63 61.5739 167.63 62.0114C167.63 62.4489 167.7 62.8551 167.839 63.2301C167.978 63.6051 168.193 63.9077 168.482 64.1378C168.772 64.3679 169.141 64.483 169.59 64.483ZM176.563 65.3864C176.017 65.3864 175.536 65.2486 175.118 64.973C174.701 64.6946 174.374 64.3026 174.138 63.7969C173.902 63.2884 173.785 62.6875 173.785 61.9943C173.785 61.3068 173.902 60.7102 174.138 60.2045C174.374 59.6989 174.702 59.3082 175.123 59.0327C175.543 58.7571 176.029 58.6193 176.58 58.6193C177.006 58.6193 177.343 58.6903 177.59 58.8324C177.84 58.9716 178.03 59.1307 178.161 59.3097C178.294 59.4858 178.398 59.6307 178.472 59.7443H178.557V56.5227H179.563V65.25H178.591V64.2443H178.472C178.398 64.3636 178.293 64.5142 178.157 64.696C178.02 64.875 177.826 65.0355 177.573 65.1776C177.32 65.3168 176.983 65.3864 176.563 65.3864ZM176.699 64.483C177.103 64.483 177.444 64.3778 177.722 64.1676C178 63.9545 178.212 63.6605 178.357 63.2855C178.502 62.9077 178.574 62.4716 178.574 61.9773C178.574 61.4886 178.503 61.0611 178.361 60.6946C178.219 60.3253 178.009 60.0384 177.731 59.8338C177.452 59.6264 177.108 59.5227 176.699 59.5227C176.273 59.5227 175.918 59.6321 175.634 59.8509C175.353 60.0668 175.141 60.3608 174.999 60.733C174.86 61.1023 174.79 61.517 174.79 61.9773C174.79 62.4432 174.861 62.8665 175.003 63.2472C175.148 63.625 175.361 63.9261 175.642 64.1506C175.927 64.3722 176.279 64.483 176.699 64.483ZM181.544 65.25V58.7045H182.55V65.25H181.544ZM182.056 57.6136C181.86 57.6136 181.691 57.5469 181.549 57.4134C181.41 57.2798 181.34 57.1193 181.34 56.9318C181.34 56.7443 181.41 56.5838 181.549 56.4503C181.691 56.3168 181.86 56.25 182.056 56.25C182.252 56.25 182.419 56.3168 182.559 56.4503C182.701 56.5838 182.772 56.7443 182.772 56.9318C182.772 57.1193 182.701 57.2798 182.559 57.4134C182.419 57.5469 182.252 57.6136 182.056 57.6136ZM186.318 65.4034C185.903 65.4034 185.527 65.3253 185.189 65.169C184.851 65.0099 184.582 64.7812 184.384 64.483C184.185 64.1818 184.085 63.8182 184.085 63.392C184.085 63.017 184.159 62.7131 184.307 62.4801C184.455 62.2443 184.652 62.0597 184.899 61.9261C185.146 61.7926 185.419 61.6932 185.717 61.6278C186.019 61.5597 186.321 61.5057 186.625 61.4659C187.023 61.4148 187.345 61.3764 187.592 61.3509C187.842 61.3224 188.024 61.2756 188.138 61.2102C188.254 61.1449 188.313 61.0312 188.313 60.8693V60.8352C188.313 60.4148 188.198 60.0881 187.967 59.8551C187.74 59.6222 187.395 59.5057 186.932 59.5057C186.452 59.5057 186.075 59.6108 185.803 59.821C185.53 60.0312 185.338 60.2557 185.227 60.4943L184.273 60.1534C184.443 59.7557 184.671 59.446 184.955 59.2244C185.242 59 185.554 58.8437 185.892 58.7557C186.233 58.6648 186.568 58.6193 186.898 58.6193C187.108 58.6193 187.35 58.6449 187.622 58.696C187.898 58.7443 188.163 58.8452 188.419 58.9986C188.678 59.152 188.892 59.3835 189.063 59.6932C189.233 60.0028 189.318 60.4176 189.318 60.9375V65.25H188.313V64.3636H188.261C188.193 64.5057 188.08 64.6577 187.921 64.8196C187.761 64.9815 187.55 65.1193 187.286 65.233C187.021 65.3466 186.699 65.4034 186.318 65.4034ZM186.472 64.5C186.869 64.5 187.205 64.4219 187.477 64.2656C187.753 64.1094 187.96 63.9077 188.1 63.6605C188.242 63.4134 188.313 63.1534 188.313 62.8807V61.9602C188.27 62.0114 188.176 62.0582 188.031 62.1009C187.889 62.1406 187.725 62.1761 187.537 62.2074C187.352 62.2358 187.172 62.2614 186.996 62.2841C186.823 62.304 186.682 62.321 186.574 62.3352C186.313 62.3693 186.068 62.4247 185.841 62.5014C185.617 62.5753 185.435 62.6875 185.296 62.8381C185.159 62.9858 185.091 63.1875 185.091 63.4432C185.091 63.7926 185.22 64.0568 185.479 64.2358C185.74 64.4119 186.071 64.5 186.472 64.5Z" fill="black"/>
</g>
</g>
<defs>
<linearGradient id="paint0_linear_174_1796" x1="0" y1="1" x2="808.989" y2="1295.38" gradientUnits="userSpaceOnUse">
<stop stop-color="#EBDCF8"/>
<stop offset="1" stop-color="#D3E4FF"/>
</linearGradient>
<linearGradient id="paint1_linear_174_1796" x1="0" y1="1" x2="808.989" y2="1295.38" gradientUnits="userSpaceOnUse">
<stop stop-color="#EBDCF8"/>
<stop offset="1" stop-color="#D3E4FF"/>
</linearGradient>
<linearGradient id="paint2_linear_174_1796" x1="70" y1="89" x2="121.941" y2="34.5168" gradientUnits="userSpaceOnUse">
<stop stop-color="#F9A8D4"/>
<stop offset="0.5" stop-color="#C4B5FD"/>
<stop offset="1" stop-color="#93C5FD"/>
</linearGradient>
<clipPath id="clip0_174_1796">
<rect width="1440" height="900" fill="white"/>
</clipPath>
</defs>
</svg>
